<?xml version="1.0" encoding="UTF-8"?>
<svg version="1.1" xmlns="http://www.w3.org/2000/svg" width="500" height="500">
<path d="M0 0 C1.38974842 2.14739943 2.17263832 4.12474883 2.94140625 6.5625 C3.56152269 8.10613749 4.18673438 9.64773559 4.81640625 11.1875 C5.13351562 12.02539062 5.450625 12.86328125 5.77734375 13.7265625 C7.63212021 18.24524608 9.91228708 22.54274305 12.16015625 26.875 C13.4656311 29.48309387 14.57355935 32.11597639 15.625 34.8359375 C18.53247754 42.23653563 21.95825575 49.40702842 25.30819702 56.61471558 C26.52142365 59.22519184 27.73148785 61.83711275 28.94067383 64.44946289 C30.54255346 67.90992477 32.14535233 71.36995783 33.74902344 74.82958984 C36.55334614 80.88133335 39.3468722 86.93797246 42.12890625 93 C42.56098389 93.94133789 42.99306152 94.88267578 43.43823242 95.85253906 C46.4827288 102.5079219 49.43291821 109.19970337 52.30859375 115.9296875 C53.57257624 118.74189734 54.88920177 121.48393995 56.27734375 124.234375 C59.22211632 130.071908 61.96619294 135.99491896 64.69140625 141.9375 C65.18511719 143.00355469 65.67882812 144.06960938 66.1875 145.16796875 C66.65800781 146.19277344 67.12851562 147.21757812 67.61328125 148.2734375 C68.03706055 149.19431152 68.46083984 150.11518555 68.89746094 151.06396484 C69.80463439 153.23515594 70.45387487 155.26653612 70.94140625 157.5625 C67.05302357 159.50669134 62.2170034 158.74733774 57.94140625 158.75 C56.93722656 158.76224609 55.93304688 158.77449219 54.8984375 158.78710938 C45.07670545 158.80616836 35.71895487 158.13435877 27.94140625 151.5625 C23.61400567 147.06866093 21.56330241 141.60841786 19.19140625 135.9375 C18.78019531 134.98359375 18.36898437 134.0296875 17.9453125 133.046875 C14.94140625 125.96124896 14.94140625 125.96124896 14.94140625 122.5625 C-5.84859375 122.5625 -26.63859375 122.5625 -48.05859375 122.5625 C-49.37640625 118.60906249 -48.38421609 117.48146784 -46.63671875 113.7578125 C-46.105625 112.61699219 -45.57453125 111.47617187 -45.02734375 110.30078125 C-44.74503906 109.7073291 -44.46273437 109.11387695 -44.171875 108.50244141 C-43.31712161 106.70542877 -42.47683788 104.90155691 -41.63671875 103.09765625 C-40.13853266 99.90320657 -38.64054457 96.71633565 -37.05859375 93.5625 C-36.65761475 92.62688232 -36.25663574 91.69126465 -35.84350586 90.72729492 C-34.05859375 88.5625 -34.05859375 88.5625 -30.6887207 87.90307617 C-29.30862453 87.86202988 -27.92756003 87.84778171 -26.546875 87.85546875 C-25.81865036 87.84034744 -25.09042572 87.82522614 -24.34013367 87.80964661 C-22.0168072 87.76669734 -19.69477797 87.75792574 -17.37109375 87.75 C-15.79488721 87.72686094 -14.21871166 87.70149682 -12.64257812 87.67382812 C-8.781135 87.61090574 -4.92050442 87.57862687 -1.05859375 87.5625 C-1.57808594 86.47453125 -2.09757813 85.3865625 -2.6328125 84.265625 C-6.27171236 76.6086458 -9.83203085 68.96536653 -12.953125 61.078125 C-14.12147583 58.41940438 -15.54473365 56.03747564 -17.05859375 53.5625 C-17.73826051 51.90109237 -18.4079828 50.23549959 -19.05859375 48.5625 C-19.38859375 48.2325 -19.71859375 47.9025 -20.05859375 47.5625 C-20.31552002 48.17246826 -20.57244629 48.78243652 -20.8371582 49.41088867 C-22.01127247 52.19224195 -23.19112422 54.97112602 -24.37109375 57.75 C-24.77521484 58.70970703 -25.17933594 59.66941406 -25.59570312 60.65820312 C-26.1902832 62.05522461 -26.1902832 62.05522461 -26.796875 63.48046875 C-27.15821533 64.33406982 -27.51955566 65.1876709 -27.8918457 66.06713867 C-29.11632282 68.68596701 -30.57166848 71.08563876 -32.05859375 73.5625 C-32.73346563 75.38465407 -33.40618698 77.20764209 -34.06640625 79.03515625 C-37.02335536 86.56722742 -40.75219058 93.82459035 -44.234375 101.125 C-44.60498047 101.90335205 -44.97558594 102.6817041 -45.35742188 103.48364258 C-46.11902766 105.08311271 -46.88205832 106.68190512 -47.64648438 108.2800293 C-49.56244371 112.30915515 -51.41741803 116.35138931 -53.1640625 120.45703125 C-56.63285019 128.60406891 -59.86721254 136.04680835 -66.05859375 142.5625 C-66.744375 143.29726563 -67.43015625 144.03203125 -68.13671875 144.7890625 C-70.05859375 146.5625 -70.05859375 146.5625 -72.05859375 146.5625 C-72.05859375 147.2225 -72.05859375 147.8825 -72.05859375 148.5625 C-80.19786584 152.8994844 -87.94030955 156.71034852 -97.05859375 158.5625 C-97.9403125 158.74425781 -98.82203125 158.92601562 -99.73046875 159.11328125 C-122.21104237 162.14763098 -142.26581334 158.09102027 -161.05859375 145.5625 C-161.05859375 144.9025 -161.05859375 144.2425 -161.05859375 143.5625 C-161.65027344 143.29953125 -162.24195313 143.0365625 -162.8515625 142.765625 C-171.87692721 137.84560318 -177.13270714 125.67439345 -180.08157349 116.31602478 C-183.76304539 102.17251464 -183.32981102 87.39894532 -183.25390625 72.90234375 C-183.25016594 70.77429845 -183.2473238 68.64625139 -183.24533081 66.51820374 C-183.23777437 60.97650208 -183.21819664 55.43490894 -183.19592285 49.89324951 C-183.17529013 44.21465522 -183.16629221 38.53604302 -183.15625 32.85742188 C-183.13494146 21.75905977 -183.09982663 10.66080598 -183.05859375 -0.4375 C-170.84859375 -0.4375 -158.63859375 -0.4375 -146.05859375 -0.4375 C-146.04924805 2.60001465 -146.03990234 5.6375293 -146.03027344 8.76708984 C-145.99644126 18.82545694 -145.94085742 28.88362021 -145.87469101 38.94182396 C-145.83525442 45.03756124 -145.80304702 51.13315489 -145.78759766 57.22900391 C-145.77240622 63.11658064 -145.73791576 69.00376237 -145.69028473 74.89116287 C-145.67549671 77.13247867 -145.66755422 79.37385088 -145.6667099 81.6152153 C-145.6643308 84.76522224 -145.63717412 87.9141459 -145.60449219 91.06396484 C-145.60952255 91.98178741 -145.61455292 92.89960999 -145.61973572 93.84524536 C-145.49943882 101.38489579 -143.90600663 109.12800193 -138.30859375 114.5625 C-137.56609375 115.2225 -136.82359375 115.8825 -136.05859375 116.5625 C-136.05859375 117.2225 -136.05859375 117.8825 -136.05859375 118.5625 C-134.64257661 119.04358275 -133.22574938 119.52228141 -131.80859375 120 C-131.0196875 120.26683594 -130.23078125 120.53367187 -129.41796875 120.80859375 C-121.22127682 123.42773538 -112.28182219 123.83075157 -104.15625 120.66015625 C-97.53863782 117.19730891 -93.52239688 112.66091675 -90.75 105.7734375 C-89.19706646 100.80755962 -88.91286672 96.07719406 -88.91674805 90.90161133 C-88.91153641 89.76881241 -88.91153641 89.76881241 -88.90621948 88.61312866 C-88.89888809 86.97843467 -88.89352882 85.3437309 -88.88992882 83.70902443 C-88.88272782 81.11401564 -88.86703319 78.51919207 -88.84858704 75.92424011 C-88.79629618 68.54774554 -88.74818905 61.17135359 -88.73266602 53.79467773 C-88.72253578 49.2758862 -88.69308501 44.75756381 -88.65134621 40.23895836 C-88.63910341 38.5251592 -88.63390256 36.81129359 -88.63614464 35.09745216 C-88.64663778 24.45662905 -88.12632621 15.66409869 -82.05859375 6.5625 C-81.39859375 6.5625 -80.73859375 6.5625 -80.05859375 6.5625 C-80.05859375 5.9025 -80.05859375 5.2425 -80.05859375 4.5625 C-71.03151224 -1.78821061 -62.68840839 -0.83413487 -52.05859375 -0.4375 C-51.72859375 10.1225 -51.39859375 20.6825 -51.05859375 31.5625 C-47.97989233 24.55310328 -47.97989233 24.55310328 -44.92700195 17.5324707 C-42.56822682 12.2533533 -40.5339798 8.26575077 -36.05859375 4.5625 C-35.19234375 3.840625 -34.32609375 3.11875 -33.43359375 2.375 C-25.83741112 -1.70443141 -7.66990694 -5.35583635 0 0 Z " fill="#F8B61C" transform="translate(302.05859375,174.4375)"/>
<path d="M0 0 C12.21 0 24.42 0 37 0 C37.0093457 3.03751465 37.01869141 6.0750293 37.02832031 9.20458984 C37.06215249 19.26295694 37.11773633 29.32112021 37.18390274 39.37932396 C37.22333933 45.47506124 37.25554673 51.57065489 37.27099609 57.66650391 C37.28618753 63.55408064 37.32067799 69.44126237 37.36830902 75.32866287 C37.38309704 77.56997867 37.39103953 79.81135088 37.39188385 82.0527153 C37.39426295 85.20272224 37.42141963 88.3516459 37.45410156 91.50146484 C37.4490712 92.41928741 37.44404083 93.33710999 37.43885803 94.28274536 C37.55915493 101.82239579 39.15258712 109.56550193 44.75 115 C45.4925 115.66 46.235 116.32 47 117 C47 117.66 47 118.32 47 119 C48.41601714 119.48108275 49.83284437 119.95978141 51.25 120.4375 C52.03890625 120.70433594 52.8278125 120.97117187 53.640625 121.24609375 C61.83731693 123.86523538 70.77677156 124.26825157 78.90234375 121.09765625 C85.51995593 117.63480891 89.53619687 113.09841675 92.30859375 106.2109375 C93.86152729 101.24505962 94.14572703 96.51469406 94.1418457 91.33911133 C94.14705734 90.20631241 94.14705734 90.20631241 94.15237427 89.05062866 C94.15970566 87.41593467 94.16506493 85.7812309 94.16866493 84.14652443 C94.17586593 81.55151564 94.19156056 78.95669207 94.21000671 76.36174011 C94.26229757 68.98524554 94.3104047 61.60885359 94.32592773 54.23217773 C94.33605797 49.7133862 94.36550874 45.19506381 94.40724754 40.67645836 C94.41949034 38.9626592 94.42469119 37.24879359 94.42244911 35.53495216 C94.41195597 24.89412905 94.93226754 16.10159869 101 7 C101.66 7 102.32 7 103 7 C103 6.34 103 5.68 103 5 C109.35568007 0.52866729 114.81826842 -0.35255517 122.3828125 -0.15625 C123.62913452 -0.13933105 123.62913452 -0.13933105 124.90063477 -0.12207031 C126.93395348 -0.09283496 128.96703779 -0.04800383 131 0 C131.1245596 5.37100984 131.21478702 10.74116011 131.2746582 16.11328125 C131.29964279 17.93667262 131.33364279 19.75996548 131.37719727 21.58300781 C131.80809855 40.09655493 131.80809855 40.09655493 126 49 C125.29337791 50.46588745 124.61465446 51.94555937 123.96484375 53.4375 C123.63605225 54.17452148 123.30726074 54.91154297 122.96850586 55.67089844 C122.62827393 56.43950195 122.28804199 57.20810547 121.9375 58 C119.28978841 63.9736718 116.58049342 69.90719491 113.75 75.796875 C113.20093994 76.95058594 112.65187988 78.10429687 112.08618164 79.29296875 C111.0065841 81.55671836 109.91504494 83.81482063 108.81030273 86.06640625 C105.94682087 92.10713794 104.46354437 96.32495923 105 103 C104.3400321 104.66933058 103.67441131 106.3364521 103 108 C103.38567131 110.68149993 103.38567131 110.68149993 104 113 C103 114 103 114 100.4375 114.0625 C99.633125 114.041875 98.82875 114.02125 98 114 C97.93941406 114.61488281 97.87882812 115.22976563 97.81640625 115.86328125 C97.69072266 117.07564453 97.69072266 117.07564453 97.5625 118.3125 C97.44068359 119.51326172 97.44068359 119.51326172 97.31640625 120.73828125 C96.73976178 124.86022138 95.72874703 126.42697459 92.5 128.875 C89.32337625 131.46526927 88.56949909 132.89960652 88 137 C86.68352881 137.69937532 85.34977849 138.36729133 84 139 C83.65657551 140.33076989 83.32380126 141.66431979 83 143 C80.69729525 145.30270475 79.52517824 145.96419239 76.25 146.1875 C75.5075 146.125625 74.765 146.06375 74 146 C72.99782936 149.58327753 72.99782936 149.58327753 74 153 C81.6023308 156.1171288 88.66064434 154.56216804 96.125 151.875 C96.74375 151.58625 97.3625 151.2975 98 151 C97.67 150.01 97.34 149.02 97 148 C100.75 146.875 100.75 146.875 103 148 C103 147.34 103 146.68 103 146 C107.75 144.875 107.75 144.875 110 146 C110.28875 145.2575 110.5775 144.515 110.875 143.75 C111.82302644 141.43260203 112.84845911 139.22082885 114 137 C115.32 137.33 116.64 137.66 118 138 C118 137.34 118 136.68 118 136 C118.99 136 119.98 136 121 136 C121 134.68 121 133.36 121 132 C121.99 132 122.98 132 124 132 C122.58581617 136.26560884 120.51748869 139.0059986 117.5 142.3125 C116.7059375 143.19550781 115.911875 144.07851563 115.09375 144.98828125 C113 147 113 147 111 147 C111 147.66 111 148.32 111 149 C102.86072791 153.3369844 95.1182842 157.14784852 86 159 C85.11828125 159.18175781 84.2365625 159.36351562 83.328125 159.55078125 C60.84755138 162.58513098 40.79278041 158.52852027 22 146 C22 145.34 22 144.68 22 144 C21.40832031 143.73703125 20.81664062 143.4740625 20.20703125 143.203125 C11.18166654 138.28310318 5.92588661 126.11189345 2.97702026 116.75352478 C-0.70445164 102.61001464 -0.27121727 87.83644532 -0.1953125 73.33984375 C-0.19157219 71.21179845 -0.18873005 69.08375139 -0.18673706 66.95570374 C-0.17918062 61.41400208 -0.15960289 55.87240894 -0.1373291 50.33074951 C-0.11669638 44.65215522 -0.10769846 38.97354302 -0.09765625 33.29492188 C-0.07634771 22.19655977 -0.04123288 11.09830598 0 0 Z " fill="#085192" transform="translate(119,174)"/>
<path d="M0 0 C1.39047008 2.14851451 2.1694945 4.12405059 2.94140625 6.5625 C3.60418818 8.18908832 4.27096416 9.81405402 4.94140625 11.4375 C5.2559375 12.27667969 5.57046875 13.11585938 5.89453125 13.98046875 C6.9914216 16.68585876 8.30451323 19.1826896 9.69140625 21.75 C11.87352393 26.01352223 12.63422654 28.81173232 11.94140625 33.5625 C10.95140625 34.5525 10.95140625 34.5525 9.94140625 35.5625 C9.94140625 34.5725 9.94140625 33.5825 9.94140625 32.5625 C9.31492187 32.995625 8.6884375 33.42875 8.04296875 33.875 C7.22570312 34.431875 6.4084375 34.98875 5.56640625 35.5625 C4.75429688 36.119375 3.9421875 36.67625 3.10546875 37.25 C0.94140625 38.5625 0.94140625 38.5625 -1.05859375 38.5625 C-1.05859375 39.2225 -1.05859375 39.8825 -1.05859375 40.5625 C-1.84234375 41.0575 -2.62609375 41.5525 -3.43359375 42.0625 C-6.80349769 45.27193232 -7.02489711 47.73841737 -7.69921875 52.22265625 C-8.05859375 54.5625 -8.05859375 54.5625 -9.05859375 57.5625 C-7.57359375 58.0575 -7.57359375 58.0575 -6.05859375 58.5625 C-6.05859375 60.8725 -6.05859375 63.1825 -6.05859375 65.5625 C-7.04859375 66.0575 -7.04859375 66.0575 -8.05859375 66.5625 C-13.78681958 61.47074371 -16.28375851 55.60631254 -19.05859375 48.5625 C-19.38859375 48.2325 -19.71859375 47.9025 -20.05859375 47.5625 C-20.31552002 48.17246826 -20.57244629 48.78243652 -20.8371582 49.41088867 C-22.01127247 52.19224195 -23.19112422 54.97112602 -24.37109375 57.75 C-24.77521484 58.70970703 -25.17933594 59.66941406 -25.59570312 60.65820312 C-25.99208984 61.58955078 -26.38847656 62.52089844 -26.796875 63.48046875 C-27.3388855 64.76087036 -27.3388855 64.76087036 -27.8918457 66.06713867 C-29.11632282 68.68596701 -30.57166848 71.08563876 -32.05859375 73.5625 C-32.73346563 75.38465407 -33.40618698 77.20764209 -34.06640625 79.03515625 C-37.03281203 86.59131586 -40.77400806 93.87266297 -44.26953125 101.1953125 C-49.05804741 111.23981716 -53.67173243 121.33589404 -58.05859375 131.5625 C-59.37859375 131.5625 -60.69859375 131.5625 -62.05859375 131.5625 C-62.05859375 132.8825 -62.05859375 134.2025 -62.05859375 135.5625 C-63.04859375 135.5625 -64.03859375 135.5625 -65.05859375 135.5625 C-65.05859375 136.2225 -65.05859375 136.8825 -65.05859375 137.5625 C-66.37859375 137.2325 -67.69859375 136.9025 -69.05859375 136.5625 C-69.34734375 137.305 -69.63609375 138.0475 -69.93359375 138.8125 C-70.88162019 141.12989797 -71.90705286 143.34167115 -73.05859375 145.5625 C-74.37859375 145.2325 -75.69859375 144.9025 -77.05859375 144.5625 C-77.38859375 145.2225 -77.71859375 145.8825 -78.05859375 146.5625 C-78.71859375 146.2325 -79.37859375 145.9025 -80.05859375 145.5625 C-80.05859375 146.2225 -80.05859375 146.8825 -80.05859375 147.5625 C-81.70859375 147.8925 -83.35859375 148.2225 -85.05859375 148.5625 C-85.05859375 149.5525 -85.05859375 150.5425 -85.05859375 151.5625 C-94.11139137 155.28061331 -100.54753051 156.22647836 -110.05859375 153.5625 C-110.79747678 150.90252109 -111.16200587 149.02785456 -110.55859375 146.3125 C-108.25714115 143.62747197 -105.45857564 144.0482117 -102.05859375 143.5625 C-100.72526042 141.72916667 -100.72526042 141.72916667 -100.05859375 139.5625 C-98.43020087 137.73055801 -97.25589561 136.66115093 -95.05859375 135.5625 C-94.92582031 134.799375 -94.79304688 134.03625 -94.65625 133.25 C-93.7778731 129.30017447 -91.35213331 127.41681715 -88.5546875 124.625 C-86.698301 122.06580399 -86.83611373 120.65699478 -87.05859375 117.5625 C-86.37109375 115.3125 -86.37109375 115.3125 -85.05859375 113.5625 C-82.43359375 112.8125 -82.43359375 112.8125 -80.05859375 112.5625 C-80.05859375 111.2425 -80.05859375 109.9225 -80.05859375 108.5625 C-80.71859375 107.9025 -81.37859375 107.2425 -82.05859375 106.5625 C-81.39859375 106.5625 -80.73859375 106.5625 -80.05859375 106.5625 C-79.35831248 103.67383976 -79.07073878 101.33251215 -79.22851562 98.34472656 C-79.0338363 94.01143321 -77.74637504 90.91128879 -75.83984375 87.109375 C-75.50594635 86.41515945 -75.17204895 85.72094391 -74.82803345 85.00569153 C-73.74990088 82.76875607 -72.65418007 80.54093035 -71.55859375 78.3125 C-70.08066705 75.25705443 -68.61239891 72.197007 -67.14453125 69.13671875 C-66.78527557 68.39070908 -66.4260199 67.6446994 -66.05587769 66.87608337 C-62.89825388 60.2948207 -60.00063531 53.62498672 -57.26757812 46.85644531 C-56.05156701 43.85378902 -54.86486246 41.27190307 -53.05859375 38.5625 C-52.56863155 37.22736156 -52.12160225 35.87606188 -51.70703125 34.515625 C-50.02230329 29.29444801 -47.91596338 24.32024809 -45.68359375 19.3125 C-45.12285156 18.00539062 -45.12285156 18.00539062 -44.55078125 16.671875 C-41.30976211 9.39068133 -37.19400945 4.39448251 -30.05859375 0.5625 C-22.50420122 -1.77922938 -6.93340137 -4.84154024 0 0 Z " fill="#DE6D3D" transform="translate(302.05859375,174.4375)"/>
<path d="M0 0 C1.24632202 0.01691895 1.24632202 0.01691895 2.51782227 0.03417969 C4.55114098 0.06341504 6.58422529 0.10824617 8.6171875 0.15625 C8.7417471 5.52725984 8.83197452 10.89741011 8.8918457 16.26953125 C8.91683029 18.09292262 8.95083029 19.91621548 8.99438477 21.73925781 C9.42528605 40.25280493 9.42528605 40.25280493 3.6171875 49.15625 C2.91056541 50.62213745 2.23184196 52.10180937 1.58203125 53.59375 C1.25323975 54.33077148 0.92444824 55.06779297 0.58569336 55.82714844 C0.24546143 56.59575195 -0.09477051 57.36435547 -0.4453125 58.15625 C-3.09302409 64.1299218 -5.80231908 70.06344491 -8.6328125 75.953125 C-9.18187256 77.10683594 -9.73093262 78.26054687 -10.29663086 79.44921875 C-11.3762284 81.71296836 -12.46776756 83.97107063 -13.57250977 86.22265625 C-16.43599163 92.26338794 -17.91926813 96.48120923 -17.3828125 103.15625 C-18.0427804 104.82558058 -18.70840119 106.4927021 -19.3828125 108.15625 C-18.99714119 110.83774993 -18.99714119 110.83774993 -18.3828125 113.15625 C-19.3828125 114.15625 -19.3828125 114.15625 -21.9453125 114.21875 C-22.7496875 114.198125 -23.5540625 114.1775 -24.3828125 114.15625 C-24.44339844 114.77113281 -24.50398438 115.38601563 -24.56640625 116.01953125 C-24.69208984 117.23189453 -24.69208984 117.23189453 -24.8203125 118.46875 C-24.94212891 119.66951172 -24.94212891 119.66951172 -25.06640625 120.89453125 C-25.64305072 125.01647138 -26.65406547 126.58322459 -29.8828125 129.03125 C-33.05943625 131.62151927 -33.81331341 133.05585652 -34.3828125 137.15625 C-35.69928369 137.85562532 -37.03303401 138.52354133 -38.3828125 139.15625 C-38.72623699 140.48701989 -39.05901124 141.82056979 -39.3828125 143.15625 C-41.68551725 145.45895475 -42.85763426 146.12044239 -46.1328125 146.34375 C-46.8753125 146.281875 -47.6178125 146.22 -48.3828125 146.15625 C-49.38498314 149.73952753 -49.38498314 149.73952753 -48.3828125 153.15625 C-40.7804817 156.2733788 -33.72216816 154.71841804 -26.2578125 152.03125 C-25.6390625 151.7425 -25.0203125 151.45375 -24.3828125 151.15625 C-24.7128125 150.16625 -25.0428125 149.17625 -25.3828125 148.15625 C-21.6328125 147.03125 -21.6328125 147.03125 -19.3828125 148.15625 C-19.3828125 147.49625 -19.3828125 146.83625 -19.3828125 146.15625 C-14.6328125 145.03125 -14.6328125 145.03125 -12.3828125 146.15625 C-12.0940625 145.41375 -11.8053125 144.67125 -11.5078125 143.90625 C-10.55978606 141.58885203 -9.53435339 139.37707885 -8.3828125 137.15625 C-7.0628125 137.48625 -5.7428125 137.81625 -4.3828125 138.15625 C-4.3828125 137.49625 -4.3828125 136.83625 -4.3828125 136.15625 C-3.3928125 136.15625 -2.4028125 136.15625 -1.3828125 136.15625 C-1.3828125 134.83625 -1.3828125 133.51625 -1.3828125 132.15625 C-0.3928125 132.15625 0.5971875 132.15625 1.6171875 132.15625 C0.20300367 136.42185884 -1.86532381 139.1622486 -4.8828125 142.46875 C-5.676875 143.35175781 -6.4709375 144.23476563 -7.2890625 145.14453125 C-9.3828125 147.15625 -9.3828125 147.15625 -11.3828125 147.15625 C-11.3828125 147.81625 -11.3828125 148.47625 -11.3828125 149.15625 C-19.52208459 153.4932344 -27.2645283 157.30409852 -36.3828125 159.15625 C-37.70539063 159.42888672 -37.70539063 159.42888672 -39.0546875 159.70703125 C-56.64037673 162.08068649 -79.53502706 161.257398 -94.3828125 150.15625 C-95.19140625 147.96875 -95.19140625 147.96875 -95.3828125 146.15625 C-90.30834252 146.5665263 -85.40397131 147.10327006 -80.4453125 148.28125 C-72.5000479 149.95262434 -64.01444669 148.79263272 -56.3828125 146.15625 C-54.8080017 144.18590198 -54.8080017 144.18590198 -54.3828125 142.15625 C-52.7328125 142.15625 -51.0828125 142.15625 -49.3828125 142.15625 C-49.3828125 140.83625 -49.3828125 139.51625 -49.3828125 138.15625 C-48.6196875 138.218125 -47.8565625 138.28 -47.0703125 138.34375 C-44.39811936 138.37718175 -44.39811936 138.37718175 -42.5703125 136.96875 C-41.01603044 134.59642475 -41.15744062 132.93583655 -41.3828125 130.15625 C-40.7228125 130.15625 -40.0628125 130.15625 -39.3828125 130.15625 C-38.7228125 129.16625 -38.0628125 128.17625 -37.3828125 127.15625 C-36.3928125 127.15625 -35.4028125 127.15625 -34.3828125 127.15625 C-34.0528125 125.17625 -33.7228125 123.19625 -33.3828125 121.15625 C-36.3528125 122.14625 -36.3528125 122.14625 -39.3828125 123.15625 C-39.3828125 118.60413192 -36.40690864 116.57056272 -33.42578125 113.3125 C-27.63576372 104.3673104 -27.96230023 93.95704089 -28.00268745 83.66839409 C-28.01191403 81.09793988 -28.00144531 78.52819725 -27.98606873 75.95777893 C-27.94627836 68.65814098 -27.944765 61.35856643 -27.94702148 54.05883789 C-27.94707283 49.57208588 -27.92779379 45.08572247 -27.89768791 40.59907722 C-27.88695646 38.08307406 -27.89893267 35.56784192 -27.91151428 33.05186462 C-27.88887211 23.26555877 -26.91991871 15.46190931 -21.3828125 7.15625 C-20.7228125 7.15625 -20.0628125 7.15625 -19.3828125 7.15625 C-19.3828125 6.49625 -19.3828125 5.83625 -19.3828125 5.15625 C-13.02713243 0.68491729 -7.56454408 -0.19630517 0 0 Z " fill="#7E1F89" transform="translate(241.3828125,173.84375)"/>
<path d="M0 0 C1.05859375 1.81640625 1.05859375 1.81640625 2 4 C1.35902703 6.00838196 0.69100553 8.00827818 0 10 C0.37722015 12.72502965 0.37722015 12.72502965 1 15 C0 16 0 16 -2.5625 16.0625 C-3.366875 16.041875 -4.17125 16.02125 -5 16 C-5.06058594 16.61488281 -5.12117188 17.22976563 -5.18359375 17.86328125 C-5.30927734 19.07564453 -5.30927734 19.07564453 -5.4375 20.3125 C-5.55931641 21.51326172 -5.55931641 21.51326172 -5.68359375 22.73828125 C-6.26023822 26.86022138 -7.27125297 28.42697459 -10.5 30.875 C-13.67662375 33.46526927 -14.43050091 34.89960652 -15 39 C-16.31647119 39.69937532 -17.65022151 40.36729133 -19 41 C-19.34342449 42.33076989 -19.67619874 43.66431979 -20 45 C-22.30270475 47.30270475 -23.47482176 47.96419239 -26.75 48.1875 C-27.86375 48.0946875 -27.86375 48.0946875 -29 48 C-30.00217064 51.58327753 -30.00217064 51.58327753 -29 55 C-21.3976692 58.1171288 -14.33935566 56.56216804 -6.875 53.875 C-6.25625 53.58625 -5.6375 53.2975 -5 53 C-5.33 52.01 -5.66 51.02 -6 50 C-2.25 48.875 -2.25 48.875 0 50 C0 49.34 0 48.68 0 48 C4.75 46.875 4.75 46.875 7 48 C7.28875 47.2575 7.5775 46.515 7.875 45.75 C8.82302644 43.43260203 9.84845911 41.22082885 11 39 C12.98 39.495 12.98 39.495 15 40 C15 39.34 15 38.68 15 38 C15.99 38 16.98 38 18 38 C18 36.68 18 35.36 18 34 C18.99 34 19.98 34 21 34 C19.58581617 38.26560884 17.51748869 41.0059986 14.5 44.3125 C13.7059375 45.19550781 12.911875 46.07851563 12.09375 46.98828125 C10 49 10 49 8 49 C8 49.66 8 50.32 8 51 C-0.13927209 55.3369844 -7.8817158 59.14784852 -17 61 C-17.88171875 61.18175781 -18.7634375 61.36351562 -19.671875 61.55078125 C-38.85390527 64.13990505 -58.20611039 61.87875859 -75 52 C-75 51.67 -75 51.34 -75 51 C-74.41476563 51.0721875 -73.82953125 51.144375 -73.2265625 51.21875 C-70.15328704 51.550996 -67.08409466 51.78811563 -64 52 C-63.3301709 52.04753418 -62.6603418 52.09506836 -61.97021484 52.14404297 C-48.17167248 53.00115379 -34.56572112 50.99742223 -23.65234375 41.66015625 C-15.950404 33.92180071 -11.5881749 24.76102967 -7 15 C-6.48759766 13.9157373 -6.48759766 13.9157373 -5.96484375 12.80957031 C-3.95439566 8.5497901 -1.96767585 4.27969498 0 0 Z " fill="#84186A" transform="translate(222,272)"/>
<path d="M0 0 C12.21 0 24.42 0 37 0 C37.0093457 3.03751465 37.01869141 6.0750293 37.02832031 9.20458984 C37.06215249 19.26295694 37.11773633 29.32112021 37.18390274 39.37932396 C37.22333933 45.47506124 37.25554673 51.57065489 37.27099609 57.66650391 C37.28618753 63.55408064 37.32067799 69.44126237 37.36830902 75.32866287 C37.38309704 77.56997867 37.39103953 79.81135088 37.39188385 82.0527153 C37.39426295 85.20272224 37.42141963 88.3516459 37.45410156 91.50146484 C37.4490712 92.41928741 37.44404083 93.33710999 37.43885803 94.28274536 C37.54804067 101.12580592 38.82549778 108.234162 43.36798477 113.62280846 C44.56576804 114.76224274 45.78135349 115.88290737 47 117 C47 117.99 47 118.98 47 120 C44.03 120.495 44.03 120.495 41 121 C40.8453125 119.700625 40.8453125 119.700625 40.6875 118.375 C39.96601586 114.83316877 38.72876739 112.15687958 37 109 C36.01 109 35.02 109 34 109 C34 74.02 34 39.04 34 3 C24.1 3 14.2 3 4 3 C4 13.56 4 24.12 4 35 C3.34 35 2.68 35 2 35 C2.10894521 42.23418571 2.22182533 49.46829969 2.33933926 56.70235157 C2.39382703 60.06367048 2.44671924 63.42499592 2.49731445 66.78637695 C2.75931324 86.62163992 2.75931324 86.62163992 3.760849 106.42964172 C3.98468067 109.81516693 4.12641847 112.76423072 3 116 C2.68329347 114.35497095 2.371909 112.70891723 2.0625 111.0625 C1.88847656 110.14597656 1.71445313 109.22945313 1.53515625 108.28515625 C0.3303399 100.88916681 -0.14464333 93.65525763 -0.11352539 86.16577148 C-0.11367142 85.22811447 -0.11381744 84.29045746 -0.1139679 83.3243866 C-0.11327691 80.25659794 -0.10552299 77.18887167 -0.09765625 74.12109375 C-0.09578917 71.9816135 -0.09436664 69.84213281 -0.09336853 67.70265198 C-0.08956616 62.0951111 -0.07975551 56.48759648 -0.06866455 50.88006592 C-0.05840124 45.14856318 -0.0538604 39.41705617 -0.04882812 33.68554688 C-0.03813105 22.45701791 -0.02055288 11.22851525 0 0 Z " fill="#7CB6D4" transform="translate(119,174)"/>
<path d="M0 0 C1.34998308 4.04994925 0.24760467 5.13460378 -1.625 8.9375 C-2.28492284 10.30286941 -2.94367757 11.66880373 -3.6015625 13.03515625 C-3.97958008 13.81391113 -4.35759766 14.59266602 -4.74707031 15.39501953 C-7.21706265 20.53040889 -9.6023446 25.70555354 -12 30.875 C-12.54881836 32.05521729 -13.09763672 33.23543457 -13.66308594 34.45141602 C-16.78462357 41.17169071 -19.87361965 47.90594259 -22.9296875 54.65625 C-23.25906311 55.38337189 -23.58843872 56.11049377 -23.92779541 56.85964966 C-25.52629847 60.39010663 -27.12129382 63.92208831 -28.7109375 67.45654297 C-31.61804599 73.90311024 -34.58241665 80.3177277 -37.703125 86.6640625 C-38.24356445 87.76443848 -38.78400391 88.86481445 -39.34082031 89.99853516 C-45.68091805 101.46780554 -55.86345595 107.98914751 -68.046875 112.08984375 C-78.54261709 114.86326085 -90.60227745 113.56507693 -101 111 C-101.33 110.01 -101.66 109.02 -102 108 C-96.92553002 108.4102763 -92.02115881 108.94702006 -87.0625 110.125 C-79.1172354 111.79637434 -70.63163419 110.63638272 -63 108 C-61.4251892 106.02965198 -61.4251892 106.02965198 -61 104 C-59.35 104 -57.7 104 -56 104 C-56 102.68 -56 101.36 -56 100 C-54.8553125 100.0928125 -54.8553125 100.0928125 -53.6875 100.1875 C-51.01530686 100.22093175 -51.01530686 100.22093175 -49.1875 98.8125 C-47.63321794 96.44017475 -47.77462812 94.77958655 -48 92 C-47.34 92 -46.68 92 -46 92 C-45.01 90.515 -45.01 90.515 -44 89 C-43.01 89 -42.02 89 -41 89 C-40.67 87.02 -40.34 85.04 -40 83 C-42.97 83.99 -42.97 83.99 -46 85 C-46 80.35429766 -42.89331246 78.07560312 -39.9453125 74.66796875 C-37.88373724 71.84054726 -36.93033374 69.35409794 -36 66 C-35.34 66 -34.68 66 -34 66 C-33.896875 65.38125 -33.79375 64.7625 -33.6875 64.125 C-33 62 -33 62 -30 60 C-28.85554005 58.1190417 -28.85554005 58.1190417 -27.9375 56 C-26.77319231 53.45629163 -26.00643448 52.00643448 -24 50 C-23.87625 49.443125 -23.7525 48.88625 -23.625 48.3125 C-22.86864502 45.51398657 -21.45538791 43.28693072 -19.984375 40.80859375 C-18.62615499 38.31313398 -17.82002522 35.71239111 -17 33 C-16.505 32.01 -16.505 32.01 -16 31 C-15.34 31 -14.68 31 -14 31 C-14 28.36 -14 25.72 -14 23 C-13.34 23 -12.68 23 -12 23 C-11.67 22.34 -11.34 21.68 -11 21 C-10.54625 20.319375 -10.0925 19.63875 -9.625 18.9375 C-7.81570437 15.66685022 -6.84165412 12.47832792 -5.84375 8.890625 C-5.5653125 8.26671875 -5.286875 7.6428125 -5 7 C-4.01 6.67 -3.02 6.34 -2 6 C-1.855625 5.195625 -1.71125 4.39125 -1.5625 3.5625 C-1 1 -1 1 0 0 Z " fill="#4A1754" transform="translate(248,212)"/>
<path d="M0 0 C0.93585938 0.01804688 1.87171875 0.03609375 2.8359375 0.0546875 C5.14167015 0.10174327 7.44530945 0.16746287 9.75 0.25 C10.375 3.125 10.375 3.125 10.75 6.25 C10.09 6.91 9.43 7.57 8.75 8.25 C8.75 7.26 8.75 6.27 8.75 5.25 C8.12351562 5.683125 7.49703125 6.11625 6.8515625 6.5625 C6.03429687 7.119375 5.21703125 7.67625 4.375 8.25 C3.56289063 8.806875 2.75078125 9.36375 1.9140625 9.9375 C-0.25 11.25 -0.25 11.25 -2.25 11.25 C-2.25 11.91 -2.25 12.57 -2.25 13.25 C-3.03375 13.745 -3.8175 14.24 -4.625 14.75 C-7.99490394 17.95943232 -8.21630336 20.42591737 -8.890625 24.91015625 C-9.25 27.25 -9.25 27.25 -10.25 30.25 C-9.26 30.58 -8.27 30.91 -7.25 31.25 C-7.25 33.56 -7.25 35.87 -7.25 38.25 C-8.24 38.745 -8.24 38.745 -9.25 39.25 C-11.41593561 37.50457848 -12.18600029 36.62969057 -12.65625 33.83984375 C-12.71884193 32.06901366 -12.78134166 30.29818032 -12.84375 28.52734375 C-12.9778125 27.77582031 -13.111875 27.02429688 -13.25 26.25 C-14.24 25.59 -15.23 24.93 -16.25 24.25 C-16.9375 21.125 -16.9375 21.125 -17.25 18.25 C-18.24 17.92 -19.23 17.59 -20.25 17.25 C-20.98046875 15.18359375 -20.98046875 15.18359375 -21.4375 12.6875 C-21.59605469 11.86121094 -21.75460937 11.03492188 -21.91796875 10.18359375 C-22.02753906 9.54550781 -22.13710938 8.90742188 -22.25 8.25 C-20.25 8.25 -18.25 8.25 -16.25 8.25 C-16.0025 7.6725 -15.755 7.095 -15.5 6.5 C-11.58296112 -0.55066998 -7.47761427 -0.27229408 0 0 Z " fill="#E66B1C" transform="translate(303.25,201.75)"/>
<path d="M0 0 C2.88310805 3.43020385 4.53361411 7.22056144 6.25 11.3125 C6.86960018 12.75845342 7.4907301 14.20375216 8.11328125 15.6484375 C8.58435303 16.74236816 8.58435303 16.74236816 9.06494141 17.85839844 C10.46994152 21.07632559 11.94533861 24.2592347 13.4375 27.4375 C13.71827393 28.03691406 13.99904785 28.63632812 14.28833008 29.25390625 C15.91883663 32.7249818 17.56610414 36.18785407 19.21875 39.6484375 C19.58814697 40.42517822 19.95754395 41.20191895 20.33813477 42.00219727 C21.05912749 43.51735476 21.78346199 45.03092755 22.51147461 46.54272461 C25 51.77584731 25 51.77584731 25 54 C21.11161732 55.94419134 16.27559715 55.18483774 12 55.1875 C10.49373047 55.20586914 10.49373047 55.20586914 8.95703125 55.22460938 C-0.8647008 55.24366836 -10.22245138 54.57185877 -18 48 C-21.654208 44.02990762 -23.70397648 39.76962753 -25.8125 34.875 C-26.13669922 34.15957031 -26.46089844 33.44414062 -26.79492188 32.70703125 C-29.12373533 27.37120599 -29.12373533 27.37120599 -28 24 C-28 24.66 -28 25.32 -28 26 C-27.01 26.33 -26.02 26.66 -25 27 C-23.71875 29.109375 -23.71875 29.109375 -22.5 31.75 C-21.15119923 34.60244877 -19.82139236 37.29562644 -18.1875 40 C-17 42 -17 42 -17 44 C-16.34 44 -15.68 44 -15 44 C-15 44.66 -15 45.32 -15 46 C-13.515 45.505 -13.515 45.505 -12 45 C-11.34 45.66 -10.68 46.32 -10 47 C-10.33 47.66 -10.66 48.32 -11 49 C-9.515 48.505 -9.515 48.505 -8 48 C-7.67 48.66 -7.34 49.32 -7 50 C-0.07 50.33 6.86 50.66 14 51 C14 50.34 14 49.68 14 49 C15.98 48.505 15.98 48.505 18 48 C17.65555119 45.52733235 17.65555119 45.52733235 17 43 C16.01 42.505 16.01 42.505 15 42 C14.505 42.99 14.505 42.99 14 44 C14 43.01 14 42.02 14 41 C12.02 41.495 12.02 41.495 10 42 C10.350625 41.278125 10.70125 40.55625 11.0625 39.8125 C12.16923033 36.49230901 12.07689982 35.30762087 11 32 C10.32584164 30.65987145 9.63711038 29.32701897 8.9375 28 C7.28383585 24.84788928 6.5467988 22.62560964 7 19 C6.34 19 5.68 19 5 19 C4.15399724 16.9635505 3.3237175 14.92056513 2.5 12.875 C2.0359375 11.73804688 1.571875 10.60109375 1.09375 9.4296875 C0.01684959 6.0528355 -0.21360807 3.51385272 0 0 Z " fill="#F6EA46" transform="translate(348,278)"/>
<path d="M0 0 C1.40387824 2.14919562 2.27437144 3.79752768 2.765625 6.31640625 C2.435625 7.30640625 2.105625 8.29640625 1.765625 9.31640625 C0.445625 6.67640625 -0.874375 4.03640625 -2.234375 1.31640625 C-5.98128947 2.09947579 -5.98128947 2.09947579 -8.234375 3.31640625 C-9.66022019 3.37653441 -11.08889808 3.37691932 -12.515625 3.34375 C-13.35738281 3.33150391 -14.19914062 3.31925781 -15.06640625 3.30664062 C-16.84513355 3.27148276 -18.62378794 3.2324197 -20.40234375 3.18945312 C-21.24410156 3.17849609 -22.08585937 3.16753906 -22.953125 3.15625 C-23.72591797 3.13941162 -24.49871094 3.12257324 -25.29492188 3.10522461 C-27.4730918 3.13751682 -27.4730918 3.13751682 -29.234375 5.31640625 C-29.5025 6.14140625 -29.770625 6.96640625 -30.046875 7.81640625 C-31.58848802 11.06190734 -32.95247408 11.11571079 -36.234375 12.31640625 C-39.08651414 15.26689502 -39.234375 16.02740762 -39.234375 20.31640625 C-39.234375 21.63640625 -39.234375 22.95640625 -39.234375 24.31640625 C-40.765625 25.66796875 -40.765625 25.66796875 -42.734375 26.94140625 C-45.25247492 28.90724683 -46.13090905 29.7356058 -46.69921875 32.92578125 C-46.67453495 35.42237101 -46.54274317 37.83967139 -46.234375 40.31640625 C-47.719375 40.81140625 -47.719375 40.81140625 -49.234375 41.31640625 C-50.44319596 43.31657091 -50.44319596 43.31657091 -51.234375 45.31640625 C-51.894375 44.98640625 -52.554375 44.65640625 -53.234375 44.31640625 C-53.08203183 35.53055799 -50.75674008 28.81117047 -46.984375 20.94140625 C-46.50613281 19.88824219 -46.02789062 18.83507812 -45.53515625 17.75 C-43.02391049 12.38042574 -40.81961781 8.11671766 -36.234375 4.31640625 C-34.935 3.23359375 -34.935 3.23359375 -33.609375 2.12890625 C-25.95232479 -1.98321331 -7.54250523 -5.68325132 0 0 Z " fill="#E8A846" transform="translate(302.234375,174.68359375)"/>
<path d="M0 0 C11.55 0 23.1 0 35 0 C33.02 0.99 33.02 0.99 31 2 C30.01 2.66 29.02 3.32 28 4 C28 3.34 28 2.68 28 2 C25.10359882 1.91879249 22.20949088 1.85940579 19.3125 1.8125 C18.08756836 1.77479492 18.08756836 1.77479492 16.83789062 1.73632812 C12.08271806 1.67857299 8.81582247 1.81133251 5 5 C4.01666329 7.49675668 4.01666329 7.49675668 4 10 C4.33 10.66 4.66 11.32 5 12 C4.34 12 3.68 12 3 12 C2.67 12.99 2.34 13.98 2 15 C1.34 15 0.68 15 0 15 C-0.268125 16.093125 -0.53625 17.18625 -0.8125 18.3125 C-1.94132576 21.81780105 -2.45373652 22.67515074 -5 25 C-5.37461812 26.32232755 -5.71259064 27.65601907 -6 29 C-5.3915625 28.90460938 -4.783125 28.80921875 -4.15625 28.7109375 C4.47354619 27.6195221 12.4695836 28.70491796 21 30 C21 30.33 21 30.66 21 31 C10.11 31 -0.78 31 -12 31 C-12 24.24990083 -12 24.24990083 -9.8828125 19.9609375 C-9.44066406 19.05085938 -8.99851562 18.14078125 -8.54296875 17.203125 C-8.07503906 16.26984375 -7.60710937 15.3365625 -7.125 14.375 C-6.66480469 13.43398438 -6.20460938 12.49296875 -5.73046875 11.5234375 C-4.49856102 9.00963159 -3.25343364 6.50312569 -2 4 C-1.34 2.68 -0.68 1.36 0 0 Z " fill="#DC7D45" transform="translate(267,264)"/>
<path d="M0 0 C0.99 0.495 0.99 0.495 2 1 C0.47202137 4.48533286 -1.07488755 7.96196134 -2.625 11.4375 C-3.05167969 12.41138672 -3.47835937 13.38527344 -3.91796875 14.38867188 C-10.84171036 29.83791622 -19.49992158 41.31571917 -35.4375 47.875 C-47.17967906 51.82718365 -60.08167709 50.94020301 -72 48 C-72.495 46.515 -72.495 46.515 -73 45 C-67.92553002 45.4102763 -63.02115881 45.94702006 -58.0625 47.125 C-50.1172354 48.79637434 -41.63163419 47.63638272 -34 45 C-32.4251892 43.02965198 -32.4251892 43.02965198 -32 41 C-30.35 41 -28.7 41 -27 41 C-27 39.68 -27 38.36 -27 37 C-25.8553125 37.0928125 -25.8553125 37.0928125 -24.6875 37.1875 C-22.01530686 37.22093175 -22.01530686 37.22093175 -20.1875 35.8125 C-18.63321794 33.44017475 -18.77462812 31.77958655 -19 29 C-18.34 29 -17.68 29 -17 29 C-16.34 28.01 -15.68 27.02 -15 26 C-14.01 26 -13.02 26 -12 26 C-11.67 24.02 -11.34 22.04 -11 20 C-12.98 20.66 -14.96 21.32 -17 22 C-17 21.01 -17 20.02 -17 19 C-15.25 17.39453125 -15.25 17.39453125 -13 15.8125 C-12.2575 15.28269531 -11.515 14.75289063 -10.75 14.20703125 C-10.1725 13.80871094 -9.595 13.41039062 -9 13 C-9 13.99 -9 14.98 -9 16 C-5.9083091 13.47043472 -5.09068668 10.77545388 -4 7 C-3.34 7 -2.68 7 -2 7 C-2 5.35 -2 3.7 -2 2 C-1.34 2 -0.68 2 0 2 C0 1.34 0 0.68 0 0 Z " fill="#1C124F" transform="translate(219,275)"/>
<path d="M0 0 C0.33 0 0.66 0 1 0 C1 33.33 1 66.66 1 101 C1.66 101 2.32 101 3 101 C3.23074219 101.66386719 3.46148437 102.32773437 3.69921875 103.01171875 C5.76264483 108.59846526 7.64067213 112.00394945 12 116 C12 116.99 12 117.98 12 119 C9.03 119.495 9.03 119.495 6 120 C5.896875 119.13375 5.79375 118.2675 5.6875 117.375 C4.96601586 113.83316877 3.72876739 111.15687958 2 108 C1.01 108 0.02 108 -1 108 C-1.07251596 84.24753603 -0.89373402 60.50639103 -0.53643799 36.75671387 C-0.47424043 32.58458099 -0.41500907 28.41240587 -0.35546875 24.24023438 C-0.23975122 16.16011418 -0.12096557 8.08004333 0 0 Z " fill="#30628B" transform="translate(154,175)"/>
<path d="M0 0 C0.99 0 1.98 0 3 0 C1.58581617 4.26560884 -0.48251131 7.0059986 -3.5 10.3125 C-4.2940625 11.19550781 -5.088125 12.07851563 -5.90625 12.98828125 C-8 15 -8 15 -10 15 C-10 15.66 -10 16.32 -10 17 C-12.2058424 18.13011652 -14.41445027 19.25415788 -16.625 20.375 C-17.24246094 20.69210937 -17.85992187 21.00921875 -18.49609375 21.3359375 C-28.26822917 26.2734375 -28.26822917 26.2734375 -32.375 25.625 C-33.179375 25.315625 -33.179375 25.315625 -34 25 C-33.01 25 -32.02 25 -31 25 C-31 24.01 -31 23.02 -31 22 C-27.04 20.515 -27.04 20.515 -23 19 C-23.33 18.01 -23.66 17.02 -24 16 C-20.25 14.875 -20.25 14.875 -18 16 C-18 15.34 -18 14.68 -18 14 C-13.25 12.875 -13.25 12.875 -11 14 C-10.566875 12.88625 -10.566875 12.88625 -10.125 11.75 C-9.17697356 9.43260203 -8.15154089 7.22082885 -7 5 C-5.68 5.33 -4.36 5.66 -3 6 C-3 5.34 -3 4.68 -3 4 C-2.01 4 -1.02 4 0 4 C0 2.68 0 1.36 0 0 Z " fill="#B3497A" transform="translate(240,306)"/>
<path d="M0 0 C1.05859375 1.81640625 1.05859375 1.81640625 2 4 C1.35902703 6.00838196 0.69100553 8.00827818 0 10 C0.37722015 12.72502965 0.37722015 12.72502965 1 15 C0 16 0 16 -2.5625 16.0625 C-3.366875 16.041875 -4.17125 16.02125 -5 16 C-5.06058594 16.61488281 -5.12117187 17.22976563 -5.18359375 17.86328125 C-5.26738281 18.67152344 -5.35117188 19.47976563 -5.4375 20.3125 C-5.51871094 21.11300781 -5.59992188 21.91351563 -5.68359375 22.73828125 C-6.26023822 26.86022138 -7.27125297 28.42697459 -10.5 30.875 C-13.04301732 32.95517777 -13.89285517 33.67142251 -14.9375 36.875 C-14.958125 37.57625 -14.97875 38.2775 -15 39 C-16.98 39.495 -16.98 39.495 -19 40 C-18.57895996 39.16359985 -18.57895996 39.16359985 -18.14941406 38.31030273 C-15.96486329 33.9193928 -13.86635243 29.48657528 -11.75 25.0625 C-11.25781982 24.03374756 -10.76563965 23.00499512 -10.25854492 21.94506836 C-6.77793123 14.65740795 -3.34414067 7.35146535 0 0 Z M-21 41 C-20.34 41.33 -19.68 41.66 -19 42 C-20.36983503 45.16115776 -20.9890638 45.9927092 -24 48 C-25.32 48 -26.64 48 -28 48 C-28 47.34 -28 46.68 -28 46 C-26.03277992 44.61876037 -24.03131672 43.28511874 -22 42 C-21.67 41.67 -21.34 41.34 -21 41 Z " fill="#B33F5F" transform="translate(222,272)"/>
<path d="M0 0 C1.40387824 2.14919562 2.27437144 3.79752768 2.765625 6.31640625 C2.435625 7.30640625 2.105625 8.29640625 1.765625 9.31640625 C0.445625 6.67640625 -0.874375 4.03640625 -2.234375 1.31640625 C-5.98128947 2.09947579 -5.98128947 2.09947579 -8.234375 3.31640625 C-9.63676223 3.37652907 -11.04202906 3.37692068 -12.4453125 3.34375 C-13.27804687 3.33150391 -14.11078125 3.31925781 -14.96875 3.30664062 C-16.72143996 3.27163868 -18.47405442 3.23261191 -20.2265625 3.18945312 C-21.061875 3.17849609 -21.8971875 3.16753906 -22.7578125 3.15625 C-23.52013184 3.13941162 -24.28245117 3.12257324 -25.06787109 3.10522461 C-27.55155817 3.34732392 -29.06990732 4.10173216 -31.234375 5.31640625 C-32.905 6.05890625 -32.905 6.05890625 -34.609375 6.81640625 C-39.52001655 9.57400193 -41.70953094 14.47018541 -44.234375 19.31640625 C-44.564375 18.65640625 -44.894375 17.99640625 -45.234375 17.31640625 C-42.24336022 10.06675615 -37.48273606 3.62544065 -30.234375 0.31640625 C-22.47158333 -1.92555524 -6.93923721 -5.22869098 0 0 Z " fill="#F6D482" transform="translate(302.234375,174.68359375)"/>
<path d="M0 0 C6.6 0 13.2 0 20 0 C24 7 24 7 24 9 C24.66 9 25.32 9 26 9 C29.35407516 15.47683479 32.31128808 21.8663758 34 29 C33.505 28.01 33.505 28.01 33 27 C30.03 27 27.06 27 24 27 C24 23.89448334 24.5393715 22.64738916 26 20 C25.34 19.67 24.68 19.34 24 19 C24.33 18.67 24.66 18.34 25 18 C24.37935063 16.39414507 23.7533082 14.79037383 23.125 13.1875 C22.77695312 12.29417969 22.42890625 11.40085938 22.0703125 10.48046875 C21.01167845 7.82288409 21.01167845 7.82288409 19 5 C19 4.01 19 3.02 19 2 C12.73 1.67 6.46 1.34 0 1 C0 0.67 0 0.34 0 0 Z " fill="#EAB637" transform="translate(280,175)"/>
<path d="M0 0 C1.258125 0.12375 2.51625 0.2475 3.8125 0.375 C4.87404297 0.47941406 4.87404297 0.47941406 5.95703125 0.5859375 C8 1 8 1 11 3 C11 3.66 11 4.32 11 5 C13.97 5.495 13.97 5.495 17 6 C17 5.34 17 4.68 17 4 C18.32 4 19.64 4 21 4 C21 4.66 21 5.32 21 6 C23.31 6 25.62 6 28 6 C28 6.66 28 7.32 28 8 C32.29 8 36.58 8 41 8 C41 8.33 41 8.66 41 9 C46.61 9 52.22 9 58 9 C58 9.33 58 9.66 58 10 C38.45296808 13.98060418 17.18790545 11.11053262 0 1 C0 0.67 0 0.34 0 0 Z " fill="#B47FAB" transform="translate(147,323)"/>
<path d="M0 0 C0.66 0 1.32 0 2 0 C1.690625 0.70125 1.38125 1.4025 1.0625 2.125 C-0.03302678 5.08936657 -0.56422992 7.87698108 -1 11 C-1.66 11 -2.32 11 -3 11 C-3 11.66 -3 12.32 -3 13 C-3.66 13 -4.32 13 -5 13 C-5 14.65 -5 16.3 -5 18 C-5.66 18 -6.32 18 -7 18 C-7.2475 19.27875 -7.495 20.5575 -7.75 21.875 C-8.70496485 25.79173989 -8.70496485 25.79173989 -11.125 27.5 C-12.053125 27.7475 -12.053125 27.7475 -13 28 C-13 27.01 -13 26.02 -13 25 C-14.32 26.32 -15.64 27.64 -17 29 C-17.66 28.67 -18.32 28.34 -19 28 C-18.51789063 27.49210937 -18.03578125 26.98421875 -17.5390625 26.4609375 C-13.90293471 22.49830028 -11.21237017 19.38831189 -10 14 C-9.34 14 -8.68 14 -8 14 C-7.896875 13.38125 -7.79375 12.7625 -7.6875 12.125 C-7 10 -7 10 -4 8 C-2.78581167 6.0533929 -2.78581167 6.0533929 -1.8125 3.875 C-1.46832031 3.15054687 -1.12414062 2.42609375 -0.76953125 1.6796875 C-0.38861328 0.84824219 -0.38861328 0.84824219 0 0 Z " fill="#271864" transform="translate(222,264)"/>
<path d="M0 0 C0.66 0.33 1.32 0.66 2 1 C0.47202137 4.48533286 -1.07488755 7.96196134 -2.625 11.4375 C-3.05167969 12.41138672 -3.47835937 13.38527344 -3.91796875 14.38867188 C-6.74557202 20.69802543 -9.96238036 26.38576096 -14 32 C-15.21386936 28.35839192 -14.6674695 27.66834531 -13.0625 24.3125 C-12.68222656 23.50425781 -12.30195313 22.69601562 -11.91015625 21.86328125 C-11.60980469 21.24839844 -11.30945313 20.63351562 -11 20 C-12.98 20.66 -14.96 21.32 -17 22 C-17 21.01 -17 20.02 -17 19 C-15.25 17.39453125 -15.25 17.39453125 -13 15.8125 C-12.2575 15.28269531 -11.515 14.75289063 -10.75 14.20703125 C-10.1725 13.80871094 -9.595 13.41039062 -9 13 C-9 13.99 -9 14.98 -9 16 C-5.9083091 13.47043472 -5.09068668 10.77545388 -4 7 C-3.34 7 -2.68 7 -2 7 C-2 5.35 -2 3.7 -2 2 C-1.34 2 -0.68 2 0 2 C0 1.34 0 0.68 0 0 Z " fill="#36134C" transform="translate(219,275)"/>
<path d="M0 0 C1.39442282 4.18326847 -0.39851665 6.57686007 -2.25 10.3125 C-2.56324219 10.96412109 -2.87648437 11.61574219 -3.19921875 12.28710938 C-5.09256138 16.21127802 -7.04425278 20.10661432 -9 24 C-9.66 24 -10.32 24 -11 24 C-11.33 24.66 -11.66 25.32 -12 26 C-12.59214971 22.98776019 -13.05311628 20.07543273 -13 17 C-11.125 14.5625 -11.125 14.5625 -9 13 C-8.67 12.34 -8.34 11.68 -8 11 C-7.34 11 -6.68 11 -6 11 C-6.33 9.35 -6.66 7.7 -7 6 C-6.01 6 -5.02 6 -4 6 C-4 5.01 -4 4.02 -4 3 C-3.34 3 -2.68 3 -2 3 C-1.67 2.34 -1.34 1.68 -1 1 C-0.67 0.67 -0.34 0.34 0 0 Z " fill="#C24055" transform="translate(255,277)"/>
<path d="M0 0 C0 0.66 0 1.32 0 2 C-0.61488281 2.25394531 -1.22976562 2.50789063 -1.86328125 2.76953125 C-2.67152344 3.11371094 -3.47976562 3.45789063 -4.3125 3.8125 C-5.51326172 4.31716797 -5.51326172 4.31716797 -6.73828125 4.83203125 C-8.99056461 5.99512749 -10.40885248 7.03809966 -12 9 C-12 9.66 -12 10.32 -12 11 C-12.66 11 -13.32 11 -14 11 C-14 10.34 -14 9.68 -14 9 C-16.31 9 -18.62 9 -21 9 C-21 8.34 -21 7.68 -21 7 C-22.32 7 -23.64 7 -25 7 C-25 7.66 -25 8.32 -25 9 C-27.8125 8.75 -27.8125 8.75 -31 8 C-32.69921875 5.953125 -32.69921875 5.953125 -34 4 C-33.42145264 4.02094727 -32.84290527 4.04189453 -32.24682617 4.06347656 C-20.94987161 4.41864895 -10.28222709 0 0 0 Z " fill="#781B68" transform="translate(189,320)"/>
<path d="M0 0 C0.99 0 1.98 0 3 0 C1.95838273 4.64379526 -0.00480505 8.79439503 -1.9375 13.125 C-2.29779297 13.94871094 -2.65808594 14.77242188 -3.02929688 15.62109375 C-3.37927734 16.40871094 -3.72925781 17.19632812 -4.08984375 18.0078125 C-4.40816162 18.72598145 -4.72647949 19.44415039 -5.05444336 20.18408203 C-6 22 -6 22 -8 24 C-8.38218767 22.34385343 -8.71395102 20.67542976 -9 19 C-8.67 18.67 -8.34 18.34 -8 18 C-7.76712992 16.31816052 -7.58735834 14.6287584 -7.4375 12.9375 C-7.35371094 12.01839844 -7.26992188 11.09929687 -7.18359375 10.15234375 C-7.12300781 9.44207031 -7.06242187 8.73179687 -7 8 C-6.34 8 -5.68 8 -5 8 C-4.34 6.35 -3.68 4.7 -3 3 C-2.34 3 -1.68 3 -1 3 C-0.67 2.01 -0.34 1.02 0 0 Z " fill="#DD816A" transform="translate(264,253)"/>
<path d="M0 0 C1.98362069 2.91708924 1.9876191 4.12380904 1.625 7.75 C1.41875 8.8225 1.2125 9.895 1 11 C0.67 11 0.34 11 0 11 C-0.33 32.45 -0.66 53.9 -1 76 C-1.33 76 -1.66 76 -2 76 C-2.04640137 66.97677507 -2.0819088 57.9535914 -2.10362434 48.93027306 C-2.11404827 44.7400935 -2.12818201 40.54999576 -2.15087891 36.35986328 C-2.17265697 32.31390202 -2.18457909 28.26801931 -2.18975449 24.22200394 C-2.19344134 22.68068837 -2.20064084 21.13937695 -2.21146011 19.59809494 C-2.22604116 17.43428099 -2.22797521 15.270789 -2.22705078 13.10693359 C-2.231492 11.87671478 -2.23593323 10.64649597 -2.24050903 9.3789978 C-1.99564134 5.93876363 -1.23673133 3.20635892 0 0 Z " fill="#B087C3" transform="translate(216,188)"/>
<path d="M0 0 C2.15377564 2.62198774 3.40072174 4.64404172 4 8 C0.11161732 9.94419134 -4.72440285 9.18483774 -9 9.1875 C-10.50626953 9.20586914 -10.50626953 9.20586914 -12.04296875 9.22460938 C-28.66620895 9.25686663 -28.66620895 9.25686663 -35 4 C-29.25 4.875 -29.25 4.875 -27 6 C-24.89625004 6.15441209 -22.78804881 6.24992639 -20.6796875 6.31640625 C-19.42285156 6.35830078 -18.16601562 6.40019531 -16.87109375 6.44335938 C-14.89302734 6.50233398 -14.89302734 6.50233398 -12.875 6.5625 C-11.53514249 6.60569512 -10.19529844 6.64930973 -8.85546875 6.69335938 C-5.57042185 6.79970981 -2.28529719 6.90173808 1 7 C0.505 3.535 0.505 3.535 0 0 Z " fill="#FCF9B3" transform="translate(369,324)"/>
<path d="M0 0 C0.66 0 1.32 0 2 0 C3.52362887 5.55306058 4.62741082 10.30406214 3 16 C0.9375 17.4375 0.9375 17.4375 -1 18 C-2 13.125 -2 13.125 -2 12 C-12.23 11.67 -22.46 11.34 -33 11 C-33 10.67 -33 10.34 -33 10 C-21.78 10 -10.56 10 1 10 C0.67 6.7 0.34 3.4 0 0 Z " fill="#F9CC8A" transform="translate(301,253)"/>
<path d="M0 0 C0.33 0.66 0.66 1.32 1 2 C1.99 2.33 2.98 2.66 4 3 C5.24609375 4.93359375 5.24609375 4.93359375 6.4375 7.4375 C6.86546875 8.3346875 7.2934375 9.231875 7.734375 10.15625 C9.30565118 13.68677179 10.74171974 17.25570808 12.10546875 20.87109375 C13.01929809 23.23377687 13.01929809 23.23377687 15 26 C9.06979836 23.67027793 6.58608809 18.56304357 4.16015625 13.01953125 C3.85980469 12.31183594 3.55945313 11.60414063 3.25 10.875 C2.93417969 10.15957031 2.61835938 9.44414062 2.29296875 8.70703125 C0.97728447 5.65988368 0 3.35321645 0 0 Z " fill="#F8E97F" transform="translate(319,302)"/>
<path d="M0 0 C3.25770695 4.1376321 5.33331071 8.56683602 7.5625 13.3125 C7.96146484 14.14201172 8.36042969 14.97152344 8.77148438 15.82617188 C10.97883493 20.49514207 12.74862444 24.98773356 14 30 C13.34 30 12.68 30 12 30 C9.38411497 26.44239635 8.50642192 23.35522853 8 19 C7.34 19 6.68 19 6 19 C3 12.5 3 12.5 3 8 C1.35 8 -0.3 8 -2 8 C-1.34 5.36 -0.68 2.72 0 0 Z " fill="#F8EC98" transform="translate(334,248)"/>
<path d="M0 0 C1.86270851 5.58812554 0.94526816 9.81348701 -1.05078125 15.16796875 C-2.12616266 17.24349913 -3.17225187 18.54231445 -5 20 C-5.99 20 -6.98 20 -8 20 C-7.35014905 15.28629244 -5.48438608 11.42313556 -3.4375 7.1875 C-2.9434668 6.14819336 -2.9434668 6.14819336 -2.43945312 5.08789062 C-1.63127749 3.38955052 -0.81631623 1.69444231 0 0 Z " fill="#CC5B52" transform="translate(231,252)"/>
<path d="M0 0 C3 0 3 0 4.625 1.125 C6 3 6 3 6.4375 6.0625 C6.623125 7.031875 6.80875 8.00125 7 9 C8.32 9.66 9.64 10.32 11 11 C11 13.97 11 16.94 11 20 C8.49978528 18.74989264 8.19683505 17.73717284 7 15.25 C6.65324219 14.53199219 6.30648438 13.81398437 5.94921875 13.07421875 C4.88405157 10.74663122 3.93805134 8.38120726 3 6 C2.67 5.67 2.34 5.34 2 5 C1.34 5.66 0.68 6.32 0 7 C0 4.69 0 2.38 0 0 Z " fill="#E9AA79" transform="translate(280,217)"/>
<path d="M0 0 C-0.66 0 -1.32 0 -2 0 C-2 0.66 -2 1.32 -2 2 C-3.64429829 3.68873879 -5.31384218 5.35305515 -7 7 C-9.22925675 9.62733831 -10.39231582 11.59696858 -11 15 C-10.34 15.33 -9.68 15.66 -9 16 C-10.32 15.67 -11.64 15.34 -13 15 C-13 14.01 -13 13.02 -13 12 C-13.66 12 -14.32 12 -15 12 C-14.1875 9.0625 -14.1875 9.0625 -13 6 C-12.01 5.67 -11.02 5.34 -10 5 C-10 4.34 -10 3.68 -10 3 C-3.375 -1.125 -3.375 -1.125 0 0 Z " fill="#B440A0" transform="translate(232,176)"/>
<path d="M0 0 C1.35985796 4.07957389 -0.24967262 6.23879756 -2.0625 9.875 C-2.71134065 11.21725311 -3.3597699 12.55970516 -4.0078125 13.90234375 C-4.33942383 14.58151855 -4.67103516 15.26069336 -5.01269531 15.96044922 C-6.53220931 19.09942547 -7.9831304 22.26780932 -9.4375 25.4375 C-9.93121094 26.50871094 -10.42492187 27.57992187 -10.93359375 28.68359375 C-11.28550781 29.44800781 -11.63742188 30.21242187 -12 31 C-13.01049372 28.3566963 -13.08128223 27.22637814 -12.109375 24.51953125 C-11.66078125 23.62621094 -11.2121875 22.73289063 -10.75 21.8125 C-8.65183536 17.49445399 -7.04112653 13.30592929 -5.7734375 8.6796875 C-5.51820313 8.12539062 -5.26296875 7.57109375 -5 7 C-4.01 6.67 -3.02 6.34 -2 6 C-1.855625 5.195625 -1.71125 4.39125 -1.5625 3.5625 C-1 1 -1 1 0 0 Z " fill="#6F1C5A" transform="translate(248,212)"/>
<path d="M0 0 C0.99 0 1.98 0 3 0 C1.58319756 4.32046898 -0.53763785 7.00461199 -3.625 10.3125 C-4.44226563 11.19550781 -5.25953125 12.07851563 -6.1015625 12.98828125 C-6.72804687 13.65214844 -7.35453125 14.31601562 -8 15 C-8.99 14.67 -9.98 14.34 -11 14 C-9.80100302 10.9168649 -8.52299523 7.93720508 -7 5 C-5.68 5.33 -4.36 5.66 -3 6 C-3 5.34 -3 4.68 -3 4 C-2.01 4 -1.02 4 0 4 C0 2.68 0 1.36 0 0 Z " fill="#BD5D85" transform="translate(240,306)"/>
<path d="M0 0 C1.05859375 1.81640625 1.05859375 1.81640625 2 4 C1.35902703 6.00838196 0.69100553 8.00827818 0 10 C0.37722015 12.72502965 0.37722015 12.72502965 1 15 C0 16 0 16 -2.5625 16.0625 C-3.366875 16.041875 -4.17125 16.02125 -5 16 C-5.33 16.99 -5.66 17.98 -6 19 C-6.3718693 13.90229172 -5.23363859 10.68534545 -3 6.125 C-2.1646875 4.39636719 -2.1646875 4.39636719 -1.3125 2.6328125 C-0.879375 1.76398438 -0.44625 0.89515625 0 0 Z " fill="#CA4754" transform="translate(222,272)"/>
<path d="M0 0 C1.2065625 0.0309375 1.2065625 0.0309375 2.4375 0.0625 C1.633125 0.619375 0.82875 1.17625 0 1.75 C-2.81410672 4.28955972 -3.36703561 5.34867654 -3.5625 9.0625 C-3.2325 9.7225 -2.9025 10.3825 -2.5625 11.0625 C-3.2225 11.0625 -3.8825 11.0625 -4.5625 11.0625 C-4.8925 12.0525 -5.2225 13.0425 -5.5625 14.0625 C-6.2225 14.0625 -6.8825 14.0625 -7.5625 14.0625 C-7.81 15.155625 -8.0575 16.24875 -8.3125 17.375 C-9.58252851 21.12158409 -10.22006352 22.16845266 -13.5625 24.0625 C-11.98591672 18.88701456 -9.82106048 14.12049007 -7.5 9.25 C-7.13583984 8.47462891 -6.77167969 7.69925781 -6.39648438 6.90039062 C-3.16698076 0.07724343 -3.16698076 0.07724343 0 0 Z " fill="#F77D2D" transform="translate(274.5625,264.9375)"/>
<path d="M0 0 C1.258125 0.12375 2.51625 0.2475 3.8125 0.375 C4.87404297 0.47941406 4.87404297 0.47941406 5.95703125 0.5859375 C8 1 8 1 11 3 C11 3.66 11 4.32 11 5 C13.97 5.495 13.97 5.495 17 6 C17 5.34 17 4.68 17 4 C18.32 4 19.64 4 21 4 C21.66 5.65 22.32 7.3 23 9 C16.93350424 8.51928438 12.41574853 7.15614116 7 4.4375 C6.32066406 4.10814453 5.64132813 3.77878906 4.94140625 3.43945312 C3.28921371 2.63662717 1.64384516 1.81978216 0 1 C0 0.67 0 0.34 0 0 Z " fill="#A0729B" transform="translate(147,323)"/>
<path d="M0 0 C0.33 1.32 0.66 2.64 1 4 C1.6084375 3.90460938 2.216875 3.80921875 2.84375 3.7109375 C11.47354619 2.6195221 19.4695836 3.70491796 28 5 C28 5.33 28 5.66 28 6 C18.1 6 8.2 6 -2 6 C-1.34 4.02 -0.68 2.04 0 0 Z " fill="#ED8F31" transform="translate(260,289)"/>
<path d="M0 0 C2 3 2 3 2 5 C2.66 5 3.32 5 4 5 C4.9765625 6.72526042 5.953125 8.45052083 6.9296875 10.17578125 C8.86973552 13.67690269 8.86973552 13.67690269 12 16 C12.625 18.0625 12.625 18.0625 13 20 C6.96104342 17.41187575 1.58633548 10.9809008 -1 5 C-0.6875 2.1875 -0.6875 2.1875 0 0 Z " fill="#5A7192" transform="translate(128,298)"/>
<path d="M0 0 C0.33 0.66 0.66 1.32 1 2 C1.66 2.33 2.32 2.66 3 3 C2.77139942 4.46184058 2.51629608 5.91955419 2.25 7.375 C2.11078125 8.18710937 1.9715625 8.99921875 1.828125 9.8359375 C1 12 1 12 -1.078125 13.2890625 C-2.02945313 13.64097656 -2.02945313 13.64097656 -3 14 C-3 13.01 -3 12.02 -3 11 C-4.32 12.32 -5.64 13.64 -7 15 C-7.66 14.67 -8.32 14.34 -9 14 C-8.51789063 13.49210937 -8.03578125 12.98421875 -7.5390625 12.4609375 C-3.90293471 8.49830028 -1.21237017 5.38831189 0 0 Z " fill="#61638F" transform="translate(212,278)"/>
<path d="M0 0 C0.99 0.33 1.98 0.66 3 1 C2.35014905 5.71370756 0.48438608 9.57686444 -1.5625 13.8125 C-2.0565332 14.85180664 -2.0565332 14.85180664 -2.56054688 15.91210938 C-3.36872251 17.61044948 -4.18368377 19.30555769 -5 21 C-5.33 21 -5.66 21 -6 21 C-6.28571429 13.57142857 -6.28571429 13.57142857 -4 10 C-3.34 10 -2.68 10 -2 10 C-2 8.68 -2 7.36 -2 6 C-1.34 6 -0.68 6 0 6 C0 4.02 0 2.04 0 0 Z " fill="#EBB280" transform="translate(277,223)"/>
<path d="M0 0 C0.66 0.99 1.32 1.98 2 3 C1.34 3 0.68 3 0 3 C0.226875 4.03125 0.45375 5.0625 0.6875 6.125 C1.03901465 10.4837817 0.23944649 12.32730775 -2 16 C-2.99 16 -3.98 16 -5 16 C-5.82200425 9.75276774 -2.92551394 5.28682163 0 0 Z " fill="#D8713D" transform="translate(260,279)"/>
<path d="M0 0 C6.93 0.33 13.86 0.66 21 1 C20.67 1.66 20.34 2.32 20 3 C16.37 3 12.74 3 9 3 C9 3.66 9 4.32 9 5 C6.1875 4.75 6.1875 4.75 3 4 C2.01 2.68 1.02 1.36 0 0 Z " fill="#641F61" transform="translate(155,324)"/>
<path d="M0 0 C0.99 0 1.98 0 3 0 C3.33 0.99 3.66 1.98 4 3 C4.66 3.66 5.32 4.32 6 5 C4.515 7.475 4.515 7.475 3 10 C2.34 9.34 1.68 8.68 1 8 C0.01 8.66 -0.98 9.32 -2 10 C-2.17942163 6.05272412 -2.09350689 3.4019487 0 0 Z " fill="#E2783C" transform="translate(242,228)"/>
<path d="M0 0 C0.66 0.33 1.32 0.66 2 1 C2 1.66 2 2.32 2 3 C4.97 3 7.94 3 11 3 C11 3.33 11 3.66 11 4 C7.01644868 4.02493556 3.03292833 4.04297028 -0.95068359 4.05493164 C-2.96323241 4.06236421 -4.97575949 4.07507829 -6.98828125 4.08789062 C-13.42163371 4.10405483 -19.6439839 4.02960975 -26 3 C-26 2.67 -26 2.34 -26 2 C-17.75 2 -9.5 2 -1 2 C-0.67 1.34 -0.34 0.68 0 0 Z " fill="#EEA32A" transform="translate(306,291)"/>
<path d="M0 0 C2.57256972 3.12920761 4.09936527 6.25611109 5.625 10 C6.05039062 11.03125 6.47578125 12.0625 6.9140625 13.125 C7.781957 15.42273507 8.48192326 17.60533418 9 20 C8.67 19.34 8.34 18.68 8 18 C5.97536745 17.34786708 5.97536745 17.34786708 4 17 C4 15.68 4 14.36 4 13 C3.34 13 2.68 13 2 13 C1.855625 11.783125 1.71125 10.56625 1.5625 9.3125 C1.17219047 6.17329623 0.67648144 3.0924866 0 0 Z " fill="#F3CB7F" transform="translate(305,184)"/>
<path d="M0 0 C2.31 0 4.62 0 7 0 C7 6.93 7 13.86 7 21 C5.68 19.68 4.36 18.36 3 17 C3.01171875 14.8515625 3.01171875 14.8515625 3.6875 12.625 C3.90535156 11.84511719 4.12320313 11.06523437 4.34765625 10.26171875 C4.56292969 9.51535156 4.77820313 8.76898438 5 8 C5.35036606 6.00291344 5.69169075 4.00401011 6 2 C3.03 1.505 3.03 1.505 0 1 C0 0.67 0 0.34 0 0 Z " fill="#A3268C" transform="translate(242,175)"/>
<path d="M0 0 C0.33 0.66 0.66 1.32 1 2 C1.66 2 2.32 2 3 2 C3 2.66 3 3.32 3 4 C3.99 3.67 4.98 3.34 6 3 C6.66 3.66 7.32 4.32 8 5 C7.67 5.66 7.34 6.32 7 7 C7.99 6.67 8.98 6.34 10 6 C10.33 6.66 10.66 7.32 11 8 C12.89533342 8.46523063 12.89533342 8.46523063 15.0625 8.625 C16.361875 8.74875 17.66125 8.8725 19 9 C19 9.33 19 9.66 19 10 C11.96771294 10.43054819 6.88036629 9.87898144 1.0625 5.5625 C0 4 0 4 0 0 Z " fill="#F5E324" transform="translate(330,320)"/>
<path d="M0 0 C1.80182456 2.34237193 3.45501126 4.70319922 5.0625 7.1875 C6.70230393 10.05234404 6.70230393 10.05234404 9 11 C9 11.99 9 12.98 9 14 C7.02 14.33 5.04 14.66 3 15 C2.87625 14.113125 2.7525 13.22625 2.625 12.3125 C2.12328373 9.05698511 2.12328373 9.05698511 0.9375 6.375 C0 4 0 4 0 0 Z " fill="#607DA1" transform="translate(157,280)"/>
<path d="M0 0 C3.30616284 3.80208727 7 9.83581485 7 15 C5.1875 14.9375 5.1875 14.9375 3 14 C0.2833627 9.14886197 -0.34469404 5.63000273 0 0 Z " fill="#F0C270" transform="translate(320,217)"/>
<path d="M0 0 C0.66 0.33 1.32 0.66 2 1 C1.8125 3.375 1.8125 3.375 1 6 C-1.3125 7.0625 -1.3125 7.0625 -4 8 C-6.27191416 10.02040748 -6.27191416 10.02040748 -8 12 C-6.5625 4.40178571 -6.5625 4.40178571 -2.9375 1.8125 C-1.4834375 0.9153125 -1.4834375 0.9153125 0 0 Z " fill="#F8AA1D" transform="translate(270,179)"/>
<path d="M0 0 C5.91492272 0.45224761 11.35199888 1.1582605 17 3 C13.15669804 5.56220131 11.76809323 4.91906612 7.3125 4.125 C5.54326172 3.81949219 5.54326172 3.81949219 3.73828125 3.5078125 C2.83464844 3.34023438 1.93101562 3.17265625 1 3 C0.67 2.01 0.34 1.02 0 0 Z " fill="#20205D" transform="translate(146,320)"/>
<path d="M0 0 C5.61 0.66 11.22 1.32 17 2 C17 2.33 17 2.66 17 3 C14.02148438 3.29296875 14.02148438 3.29296875 11.04296875 3.5859375 C8.70011858 3.92665391 8.70011858 3.92665391 6 6 C5.34 5.34 4.68 4.68 4 4 C1.89179203 4.3185177 1.89179203 4.3185177 0 5 C0 3.35 0 1.7 0 0 Z " fill="#0A265B" transform="translate(172,297)"/>
<path d="M0 0 C3.0319853 1.51599265 3.41024437 3.8596433 4.6875 6.9375 C5.14511719 8.01902344 5.60273438 9.10054688 6.07421875 10.21484375 C7 13 7 13 6 15 C2.49314354 12.77899091 1.09503404 11.01512482 0 7 C-0.07646165 4.6679198 -0.09143299 2.33154122 0 0 Z " fill="#F8ED63" transform="translate(357,298)"/>
<path d="M0 0 C2.31962709 2.31962709 3.30985217 4.46509652 4.6875 7.4375 C5.14511719 8.40558594 5.60273438 9.37367188 6.07421875 10.37109375 C7 13 7 13 6 16 C5.443125 14.865625 4.88625 13.73125 4.3125 12.5625 C2.5777124 9.44531169 2.5777124 9.44531169 -0.75 8.0625 C-1.86375 8.0315625 -1.86375 8.0315625 -3 8 C-2.34 7.01 -1.68 6.02 -1 5 C-0.61500109 3.34450469 -0.27206865 1.6777567 0 0 Z " fill="#F4D17A" transform="translate(327,232)"/>
<path d="M0 0 C0.66 0.33 1.32 0.66 2 1 C2 3.64 2 6.28 2 9 C1.01 9.33 0.02 9.66 -1 10 C-2.20882096 12.00016466 -2.20882096 12.00016466 -3 14 C-3.66 13.67 -4.32 13.34 -5 13 C-5 11.68 -5 10.36 -5 9 C-4.34 9 -3.68 9 -3 9 C-2.01 6.03 -1.02 3.06 0 0 Z " fill="#F28F28" transform="translate(254,206)"/>
<path d="M0 0 C1.22589844 0.01353516 1.22589844 0.01353516 2.4765625 0.02734375 C3.41628906 0.04474609 3.41628906 0.04474609 4.375 0.0625 C1.15860346 1.80815111 -0.94513404 2.266937 -4.625 2.0625 C-4.625 2.7225 -4.625 3.3825 -4.625 4.0625 C-5.285 4.7225 -5.945 5.3825 -6.625 6.0625 C-6.295 6.7225 -5.965 7.3825 -5.625 8.0625 C-7.605 8.0625 -9.585 8.0625 -11.625 8.0625 C-10.25 5.5625 -10.25 5.5625 -8.625 3.0625 C-7.965 3.0625 -7.305 3.0625 -6.625 3.0625 C-6.625 2.4025 -6.625 1.7425 -6.625 1.0625 C-4.21954362 -0.14022819 -2.67503047 -0.03821472 0 0 Z " fill="#B02193" transform="translate(236.625,174.9375)"/>
<path d="M0 0 C0.33 0.99 0.66 1.98 1 3 C1.66 3.33 2.32 3.66 3 4 C2.67 4.99 2.34 5.98 2 7 C1.0925 7.144375 0.185 7.28875 -0.75 7.4375 C-3.21476956 7.86409473 -5.58847107 8.35074221 -8 9 C-6.4169423 4.7257442 -3.49431596 2.73468206 0 0 Z " fill="#111A51" transform="translate(209,288)"/>
<path d="M0 0 C1.21890144 3.65670431 0.64337359 5.30335144 -0.3125 9 C-0.57675781 10.051875 -0.84101563 11.10375 -1.11328125 12.1875 C-2 15 -2 15 -4 18 C-4.66 18 -5.32 18 -6 18 C-4.83805848 11.53287812 -2.8751252 5.90377651 0 0 Z " fill="#EFBE84" transform="translate(255,197)"/>
<path d="M0 0 C0.66 0 1.32 0 2 0 C1.875 3.25 1.875 3.25 1 7 C-2.0625 9.4375 -2.0625 9.4375 -5 11 C-5.38613383 8.37428995 -5.38493778 6.6156121 -3.95703125 4.33203125 C-2.625 2.6875 -2.625 2.6875 0 0 Z " fill="#F79C1C" transform="translate(262,192)"/>
<path d="M0 0 C0.66 0.33 1.32 0.66 2 1 C-3 6 -3 6 -5.5625 8.375 C-8.37975544 11.4089674 -10.067888 14.35045511 -12 18 C-12.33 17.34 -12.66 16.68 -13 16 C-10.21192992 9.24224918 -6.08588469 4.05725646 0 0 Z " fill="#FBE9B8" transform="translate(270,176)"/>
<path d="M0 0 C1.65 1.32 3.3 2.64 5 4 C0.38 4 -4.24 4 -9 4 C-9.33 3.01 -9.66 2.02 -10 1 C-6.59434954 0.22156561 -3.48317572 -0.43539696 0 0 Z " fill="#6B125D" transform="translate(190,329)"/>
<path d="M0 0 C0 4.32041991 -2.1653931 5.9492237 -4.984375 9.0546875 C-7.80720345 11.77904519 -10.42426267 13.38741258 -14 15 C-14.66 14.67 -15.32 14.34 -16 14 C-14.89591797 13.23816406 -14.89591797 13.23816406 -13.76953125 12.4609375 C-8.44516922 8.70504672 -3.83576761 5.29071395 0 0 Z " fill="#912F68" transform="translate(205,306)"/>
<path d="M0 0 C0.66 0.33 1.32 0.66 2 1 C2 2.98 2 4.96 2 7 C2.66 7 3.32 7 4 7 C4 8.32 4 9.64 4 11 C4.66 11.33 5.32 11.66 6 12 C3.69 12 1.38 12 -1 12 C-1 8.89448334 -0.4606285 7.64738916 1 5 C0.34 4.67 -0.32 4.34 -1 4 C-0.67 2.68 -0.34 1.36 0 0 Z " fill="#F5A325" transform="translate(305,190)"/>
<path d="M0 0 C0.33 0.66 0.66 1.32 1 2 C1.99 2.33 2.98 2.66 4 3 C4 5.31 4 7.62 4 10 C3.01 10.495 3.01 10.495 2 11 C0.4375 10 0.4375 10 -1 8 C-0.96726452 5.23385218 -0.49404328 2.73969453 0 0 Z " fill="#F0882D" transform="translate(292,230)"/>
<path d="M0 0 C1.485 0.99 1.485 0.99 3 2 C3 2.99 3 3.98 3 5 C3.66 5 4.32 5 5 5 C5.13277344 5.62648438 5.26554687 6.25296875 5.40234375 6.8984375 C5.57894531 7.71570313 5.75554687 8.53296875 5.9375 9.375 C6.19853516 10.59316406 6.19853516 10.59316406 6.46484375 11.8359375 C6.92330693 14.029463 6.92330693 14.029463 8 16 C5.525 15.01 5.525 15.01 3 14 C3 11.69 3 9.38 3 7 C2.34 7 1.68 7 1 7 C0.67 4.69 0.34 2.38 0 0 Z " fill="#F6D91D" transform="translate(343,273)"/>
<path d="M0 0 C1.32 0.33 2.64 0.66 4 1 C4 2.65 4 4.3 4 6 C3.01 5.67 2.02 5.34 1 5 C1 6.65 1 8.3 1 10 C0.01 9.34 -0.98 8.68 -2 8 C-1.47731534 5.23723823 -0.89130413 2.6739124 0 0 Z " fill="#EC8A31" transform="translate(276,218)"/>
<path d="M0 0 C0.99 0.66 1.98 1.32 3 2 C3.3125 5.5 3.3125 5.5 3 9 C2.34 9.66 1.68 10.32 1 11 C1 10.01 1 9.02 1 8 C-0.32 8.33 -1.64 8.66 -3 9 C-2.5359375 7.88625 -2.5359375 7.88625 -2.0625 6.75 C-1.1905075 4.49307824 -0.52332993 2.3549847 0 0 Z " fill="#F9EA13" transform="translate(361,311)"/>
<path d="M0 0 C1.98 0.99 1.98 0.99 4 2 C4 4.97 4 7.94 4 11 C1.38726012 9.69363006 1.02763876 8.71590242 0 6 C-0.125 2.75 -0.125 2.75 0 0 Z " fill="#E2875C" transform="translate(287,226)"/>
<path d="M0 0 C3.57011026 3.732388 4.10913442 8.0949989 5 13 C4.34 12.67 3.68 12.34 3 12 C3 10.68 3 9.36 3 8 C1.35 8 -0.3 8 -2 8 C-1.34 5.36 -0.68 2.72 0 0 Z " fill="#F2D064" transform="translate(334,248)"/>
<path d="M0 0 C0 0.99 0 1.98 0 3 C-2.97 2.505 -2.97 2.505 -6 2 C-6 2.66 -6 3.32 -6 4 C-7.32 4 -8.64 4 -10 4 C-10 3.01 -10 2.02 -10 1 C-3.375 -1.125 -3.375 -1.125 0 0 Z " fill="#F5BD10" transform="translate(318,290)"/>
<path d="M0 0 C-2.92125561 1.94750374 -5.86325544 3.43162772 -9 5 C-10.67623498 5.98387706 -12.34634594 6.97862543 -14 8 C-10.8529879 0.65697176 -7.59450532 -0.50630035 0 0 Z " fill="#F79528" transform="translate(301,202)"/>
<path d="M0 0 C-0.99 0.495 -0.99 0.495 -2 1 C-2 1.66 -2 2.32 -2 3 C-8.28571429 5.42857143 -8.28571429 5.42857143 -12 4 C-11.01 4 -10.02 4 -9 4 C-9 3.01 -9 2.02 -9 1 C-5.8035914 -0.06546953 -3.34252724 -0.07427838 0 0 Z " fill="#B16297" transform="translate(218,327)"/>
<path d="M0 0 C1 3 1 3 0.22265625 5.04296875 C-0.16019531 5.75066406 -0.54304687 6.45835937 -0.9375 7.1875 C-1.31777344 7.90292969 -1.69804687 8.61835938 -2.08984375 9.35546875 C-2.54037109 10.16951172 -2.54037109 10.16951172 -3 11 C-3.99 9.68 -4.98 8.36 -6 7 C-5.34 6.67 -4.68 6.34 -4 6 C-4 5.01 -4 4.02 -4 3 C-3.34 3 -2.68 3 -2 3 C-1.67 2.34 -1.34 1.68 -1 1 C-0.67 0.67 -0.34 0.34 0 0 Z " fill="#D98589" transform="translate(255,277)"/>
<path d="M0 0 C0.45375 0.495 0.9075 0.99 1.375 1.5 C2.87635519 3.22609337 2.87635519 3.22609337 5 3 C5.33 6.3 5.66 9.6 6 13 C0 5 0 5 0 0 Z " fill="#F1C888" transform="translate(296,249)"/>
<path d="M0 0 C2.80561393 1.40280696 3.00680507 3.0509005 4.125 5.9375 C4.47820312 6.83339844 4.83140625 7.72929687 5.1953125 8.65234375 C6 11 6 11 6 13 C5.34 13 4.68 13 4 13 C2.95107762 11.36368108 1.95093297 9.69514137 1 8 C0.67 7.67 0.34 7.34 0 7 C-0.04092937 4.66702567 -0.04241723 2.33294775 0 0 Z " fill="#F0C386" transform="translate(314,204)"/>
<path d="M0 0 C-1.36983503 3.16115776 -1.9890638 3.9927092 -5 6 C-6.32 6 -7.64 6 -9 6 C-9 5.34 -9 4.68 -9 4 C-3.70588235 0 -3.70588235 0 0 0 Z " fill="#A8285E" transform="translate(203,314)"/>
<path d="M0 0 C1.485 0.99 1.485 0.99 3 2 C3.99 2 4.98 2 6 2 C5.34 3.32 4.68 4.64 4 6 C2.68 6 1.36 6 0 6 C0 4.02 0 2.04 0 0 Z " fill="#D1504B" transform="translate(250,273)"/>
<path d="M0 0 C0.66 0 1.32 0 2 0 C1.53199289 4.05606165 1.12046792 7.46588679 -1 11 C-1.33 11 -1.66 11 -2 11 C-2.28571429 3.57142857 -2.28571429 3.57142857 0 0 Z " fill="#E6A478" transform="translate(273,233)"/>
<path d="M0 0 C1.32 0 2.64 0 4 0 C4.66 1.65 5.32 3.3 6 5 C3.36 4.67 0.72 4.34 -2 4 C-2 3.34 -2 2.68 -2 2 C-1.34 2 -0.68 2 0 2 C0 1.34 0 0.68 0 0 Z " fill="#A06392" transform="translate(164,327)"/>
<path d="M0 0 C1.125 1.6875 1.125 1.6875 2 4 C1.375 6.6875 1.375 6.6875 0 9 C-2.125 9.8125 -2.125 9.8125 -4 10 C-2.8905928 6.51329166 -1.73662334 3.22515763 0 0 Z " fill="#BC4C58" transform="translate(222,272)"/>
<path d="M0 0 C0.99 0.33 1.98 0.66 3 1 C2.34 3.31 1.68 5.62 1 8 C0.01 7.67 -0.98 7.34 -2 7 C-2 5 -2 3 -2 1 C-1.34 0.67 -0.68 0.34 0 0 Z " fill="#B23A7B" transform="translate(218,321)"/>
<path d="M0 0 C1 3 1 3 1 6 C-0.65 6 -2.3 6 -4 6 C-4.33 4.68 -4.66 3.36 -5 2 C-3.35 1.34 -1.7 0.68 0 0 Z " fill="#981B66" transform="translate(191,320)"/>
<path d="M0 0 C1.1171875 1.734375 1.1171875 1.734375 2 4 C1.3203125 6.140625 1.3203125 6.140625 0.125 8.25 C-0.26429688 8.95640625 -0.65359375 9.6628125 -1.0546875 10.390625 C-1.36664063 10.92171875 -1.67859375 11.4528125 -2 12 C-3.15957207 8.52128379 -2.77456651 7.65780355 -1.5625 4.3125 C-1.13130859 3.10013672 -1.13130859 3.10013672 -0.69140625 1.86328125 C-0.46324219 1.24839844 -0.23507813 0.63351563 0 0 Z " fill="#E58342" transform="translate(248,215)"/>
<path d="M0 0 C2.22825644 2.22825644 2.69239369 3.65761628 3.625 6.625 C4.01558594 7.85089844 4.01558594 7.85089844 4.4140625 9.1015625 C4.60742188 9.72804688 4.80078125 10.35453125 5 11 C3 11 3 11 1.375 9.4375 C-0.45512039 6.19319567 -0.21131282 3.66275561 0 0 Z " fill="#FAF180" transform="translate(364,313)"/>
<path d="M0 0 C2 0 4 0 6 0 C5.690625 0.598125 5.38125 1.19625 5.0625 1.8125 C3.89790296 4.08956772 3.89790296 4.08956772 3 7 C2.34 7 1.68 7 1 7 C0.67 4.69 0.34 2.38 0 0 Z " fill="#F3922C" transform="translate(281,210)"/>
<path d="M0 0 C0.99 0 1.98 0 3 0 C3 0.66 3 1.32 3 2 C3.66 2.33 4.32 2.66 5 3 C2.625 4.5625 2.625 4.5625 0 6 C-0.66 5.67 -1.32 5.34 -2 5 C-1.34 3.35 -0.68 1.7 0 0 Z " fill="#BC588F" transform="translate(221,322)"/>
<path d="M0 0 C0.99 0 1.98 0 3 0 C2.1875 3.4375 2.1875 3.4375 1 7 C0.01 7.33 -0.98 7.66 -2 8 C-2.33 6.35 -2.66 4.7 -3 3 C-2.34 3 -1.68 3 -1 3 C-0.67 2.01 -0.34 1.02 0 0 Z " fill="#0D1451" transform="translate(203,301)"/>
<path d="M0 0 C0.66 0.33 1.32 0.66 2 1 C0.79157144 5.43090471 -0.51668565 7.98112756 -4 11 C-3.21681311 7.08406554 -1.60820142 3.63593365 0 0 Z " fill="#220E41" transform="translate(208,296)"/>
<path d="M0 0 C1 3 1 3 0.22265625 5.04296875 C-0.16019531 5.75066406 -0.54304687 6.45835937 -0.9375 7.1875 C-1.31777344 7.90292969 -1.69804687 8.61835938 -2.08984375 9.35546875 C-2.54037109 10.16951172 -2.54037109 10.16951172 -3 11 C-3.33 11 -3.66 11 -4 11 C-4.25 5.375 -4.25 5.375 -2 2 C-1.34 2 -0.68 2 0 2 C0 1.34 0 0.68 0 0 Z " fill="#DDA4AF" transform="translate(249,290)"/>
<path d="M0 0 C3.60654039 2.40436026 3.85452932 3.94679607 5 8 C4.01 8.33 3.02 8.66 2 9 C0 3.375 0 3.375 0 0 Z " fill="#113B6E" transform="translate(122,283)"/>
<path d="M0 0 C2.475 0.495 2.475 0.495 5 1 C5 1.99 5 2.98 5 4 C3.02 4.99 3.02 4.99 1 6 C0 1.125 0 1.125 0 0 Z " fill="#F79E1E" transform="translate(299,265)"/>
<path d="M0 0 C1 3 1 3 0.0625 5.1875 C-0.4634375 6.0846875 -0.4634375 6.0846875 -1 7 C-1.66 7 -2.32 7 -3 7 C-3 7.66 -3 8.32 -3 9 C-3.66 9 -4.32 9 -5 9 C-4.42647107 5.12867972 -2.51295648 2.91827204 0 0 Z " fill="#3A165C" transform="translate(229,253)"/>
<path d="M0 0 C1.32 0.66 2.64 1.32 4 2 C3.67 2.99 3.34 3.98 3 5 C3 4.34 3 3.68 3 3 C2.34 3 1.68 3 1 3 C1.309375 3.928125 1.309375 3.928125 1.625 4.875 C1.74875 5.57625 1.8725 6.2775 2 7 C1.34 7.66 0.68 8.32 0 9 C0 7.35 0 5.7 0 4 C-0.66 3.67 -1.32 3.34 -2 3 C-1.34 2.01 -0.68 1.02 0 0 Z " fill="#F19526" transform="translate(314,212)"/>
<path d="M0 0 C0.66 0 1.32 0 2 0 C2 3.3 2 6.6 2 10 C0.68 8.68 -0.64 7.36 -2 6 C-1.34 4.02 -0.68 2.04 0 0 Z " fill="#991A82" transform="translate(247,186)"/>
<path d="M0 0 C0.66 0.33 1.32 0.66 2 1 C1.25 3.9375 1.25 3.9375 0 7 C-2.125 7.875 -2.125 7.875 -4 8 C-2.66666667 5.33333333 -1.33333333 2.66666667 0 0 Z " fill="#B6335D" transform="translate(207,304)"/>
<path d="M0 0 C0.66 0.33 1.32 0.66 2 1 C2 1.66 2 2.32 2 3 C4.97 3 7.94 3 11 3 C11 3.33 11 3.66 11 4 C6.05 4 1.1 4 -4 4 C-2.68 2.68 -1.36 1.36 0 0 Z " fill="#EFB62B" transform="translate(306,291)"/>
<path d="M0 0 C1.485 0.99 1.485 0.99 3 2 C3.1875 4.625 3.1875 4.625 3 7 C2.34 7 1.68 7 1 7 C1 7.66 1 8.32 1 9 C0.34 9 -0.32 9 -1 9 C-1 7.68 -1 6.36 -1 5 C-0.34 5 0.32 5 1 5 C0.67 3.35 0.34 1.7 0 0 Z " fill="#C65B64" transform="translate(248,283)"/>
<path d="M0 0 C-0.66 0 -1.32 0 -2 0 C-2 0.66 -2 1.32 -2 2 C-5.465 3.485 -5.465 3.485 -9 5 C-9.33 4.34 -9.66 3.68 -10 3 C-3.375 -1.125 -3.375 -1.125 0 0 Z " fill="#D284C2" transform="translate(232,176)"/>
<path d="M0 0 C0.99 0 1.98 0 3 0 C1.68775452 3.93673644 0.08089673 6.22719294 -3 9 C-3 7.35 -3 5.7 -3 4 C-2.01 4 -1.02 4 0 4 C0 2.68 0 1.36 0 0 Z " fill="#D28DA7" transform="translate(240,306)"/>
<path d="M0 0 C2.64 0.33 5.28 0.66 8 1 C5.37801226 3.15377564 3.35595828 4.40072174 0 5 C0 3.35 0 1.7 0 0 Z " fill="#133369" transform="translate(172,297)"/>
<path d="M0 0 C0.66 0.33 1.32 0.66 2 1 C-0.75 6.875 -0.75 6.875 -3 8 C-3.1875 5.125 -3.1875 5.125 -3 2 C-2.01 1.34 -1.02 0.68 0 0 Z " fill="#DD581B" transform="translate(263,280)"/>
<path d="M0 0 C2.58949269 1.29474635 2.96035764 2.32663393 4 5 C4.125 7.75 4.125 7.75 4 10 C3.34 10 2.68 10 2 10 C1.34 6.7 0.68 3.4 0 0 Z " fill="#F8E388" transform="translate(338,257)"/>
<path d="M0 0 C1.98362069 2.91708924 1.9876191 4.12380904 1.625 7.75 C1.41875 8.8225 1.2125 9.895 1 11 C-0.98362069 8.08291076 -0.9876191 6.87619096 -0.625 3.25 C-0.41875 2.1775 -0.2125 1.105 0 0 Z " fill="#B452AB" transform="translate(216,188)"/>
<path d="M0 0 C1.65 0.33 3.3 0.66 5 1 C4.67 1.99 4.34 2.98 4 4 C2.35 4.33 0.7 4.66 -1 5 C-0.67 3.35 -0.34 1.7 0 0 Z " fill="#BA3164" transform="translate(233,311)"/>
<path d="M0 0 C0.99 0.33 1.98 0.66 3 1 C3 1.66 3 2.32 3 3 C2.01 3 1.02 3 0 3 C0 4.32 0 5.64 0 7 C-0.99 6.67 -1.98 6.34 -3 6 C-2.67 4.68 -2.34 3.36 -2 2 C-1.34 2 -0.68 2 0 2 C0 1.34 0 0.68 0 0 Z " fill="#B9385E" transform="translate(240,303)"/>
<path d="M0 0 C2 1 2 1 3.1875 3.375 C4 6 4 6 3 9 C2.01 8.34 1.02 7.68 0 7 C-0.1875 3.375 -0.1875 3.375 0 0 Z " fill="#FAF28F" transform="translate(357,298)"/>
<path d="M0 0 C-2.35277269 2.72426311 -4.62496331 3.8141763 -8 5 C-7.625 3.0625 -7.625 3.0625 -7 1 C-4.53721199 -0.231394 -2.7204945 -0.07159196 0 0 Z " fill="#152558" transform="translate(199,297)"/>
<path d="M0 0 C0.99 0 1.98 0 3 0 C2.30058404 3.14737182 1.23921302 6.02588876 0 9 C-0.33 9 -0.66 9 -1 9 C-0.67 6.03 -0.34 3.06 0 0 Z " fill="#E4A78F" transform="translate(264,253)"/>
<path d="M0 0 C0.33 0.66 0.66 1.32 1 2 C1.99 2.33 2.98 2.66 4 3 C4.33 5.64 4.66 8.28 5 11 C0 4.63636364 0 4.63636364 0 0 Z " fill="#F6CFA2" transform="translate(291,238)"/>
<path d="M0 0 C2.31 0.66 4.62 1.32 7 2 C6.01 3.485 6.01 3.485 5 5 C4.01 5 3.02 5 2 5 C1.34 3.35 0.68 1.7 0 0 Z " fill="#FBD00E" transform="translate(321,303)"/>
<path d="M0 0 C2.29633824 3.44450737 2.54016485 5.93812283 3 10 C0.9375 7.8125 0.9375 7.8125 -1 5 C-0.75 2.1875 -0.75 2.1875 0 0 Z " fill="#607B9D" transform="translate(128,298)"/>
<path d="M0 0 C1.32 0.66 2.64 1.32 4 2 C3.67 2.66 3.34 3.32 3 4 C2.34 3.67 1.68 3.34 1 3 C0.67 3.99 0.34 4.98 0 6 C-0.66 4.68 -1.32 3.36 -2 2 C-1.34 2 -0.68 2 0 2 C0 1.34 0 0.68 0 0 Z " fill="#073A75" transform="translate(154,282)"/>
<path d="M0 0 C2.0343459 1.41519715 2.90410393 2.54982123 3.421875 4.98046875 C3.66273952 6.98176954 3.83532741 8.9909944 4 11 C0.85041169 7.57653445 0.43820891 4.55737263 0 0 Z " fill="#EB963C" transform="translate(295,242)"/>
<path d="M0 0 C0.66 0.33 1.32 0.66 2 1 C-2.625 5.875 -2.625 5.875 -6 7 C-6 6.01 -6 5.02 -6 4 C-3 1.8125 -3 1.8125 0 0 Z " fill="#F5DA99" transform="translate(270,176)"/>
<path d="M0 0 C0.96516243 3.00272755 1.22393475 5.04215769 0 8 C-0.99 8.33 -1.98 8.66 -3 9 C-2.44271087 5.65626525 -1.64826111 2.96687001 0 0 Z " fill="#EBB39C" transform="translate(258,283)"/>
<path d="M0 0 C0.33 0 0.66 0 1 0 C1.22036864 3.85645121 0.60355101 6.49223216 -1 10 C-1.33 10 -1.66 10 -2 10 C-2 7.36 -2 4.72 -2 2 C-1.34 2 -0.68 2 0 2 C0 1.34 0 0.68 0 0 Z " fill="#4E1972" transform="translate(236,233)"/>
<path d="M0 0 C0.66 0.66 1.32 1.32 2 2 C1.34 4.31 0.68 6.62 0 9 C-0.66 9 -1.32 9 -2 9 C-1.34 6.03 -0.68 3.06 0 0 Z " fill="#F67F27" transform="translate(294,220)"/>
<path d="" fill="#FFFFFF" transform="translate(0,0)"/>
<path d="" fill="#FFFFFF" transform="translate(0,0)"/>
<path d="" fill="#FFFFFF" transform="translate(0,0)"/>
<path d="" fill="#FFFFFF" transform="translate(0,0)"/>
<path d="" fill="#FFFFFF" transform="translate(0,0)"/>
<path d="" fill="#FFFFFF" transform="translate(0,0)"/>
<path d="" fill="#FFFFFF" transform="translate(0,0)"/>
<path d="" fill="#FFFFFF" transform="translate(0,0)"/>
<path d="" fill="#FFFFFF" transform="translate(0,0)"/>
<path d="" fill="#FFFFFF" transform="translate(0,0)"/>
<path d="" fill="#FFFFFF" transform="translate(0,0)"/>
<path d="" fill="#FFFFFF" transform="translate(0,0)"/>
<path d="" fill="#FFFFFF" transform="translate(0,0)"/>
<path d="" fill="#FFFFFF" transform="translate(0,0)"/>
<path d="" fill="#FFFFFF" transform="translate(0,0)"/>
<path d="" fill="#FFFFFF" transform="translate(0,0)"/>
<path d="" fill="#FFFFFF" transform="translate(0,0)"/>
<path d="" fill="#FFFFFF" transform="translate(0,0)"/>
<path d="" fill="#FFFFFF" transform="translate(0,0)"/>
<path d="" fill="#FFFFFF" transform="translate(0,0)"/>
<path d="" fill="#FFFFFF" transform="translate(0,0)"/>
<path d="" fill="#FFFFFF" transform="translate(0,0)"/>
<path d="" fill="#FFFFFF" transform="translate(0,0)"/>
<path d="" fill="#FFFFFF" transform="translate(0,0)"/>
<path d="" fill="#FFFFFF" transform="translate(0,0)"/>
<path d="" fill="#FFFFFF" transform="translate(0,0)"/>
<path d="" fill="#FFFFFF" transform="translate(0,0)"/>
<path d="" fill="#FFFFFF" transform="translate(0,0)"/>
<path d="" fill="#FFFFFF" transform="translate(0,0)"/>
<path d="" fill="#FFFFFF" transform="translate(0,0)"/>
<path d="" fill="#FFFFFF" transform="translate(0,0)"/>
<path d="" fill="#FFFFFF" transform="translate(0,0)"/>
<path d="" fill="#FFFFFF" transform="translate(0,0)"/>
<path d="" fill="#FFFFFF" transform="translate(0,0)"/>
<path d="" fill="#FFFFFF" transform="translate(0,0)"/>
<path d="" fill="#FFFFFF" transform="translate(0,0)"/>
<path d="" fill="#FFFFFF" transform="translate(0,0)"/>
<path d="" fill="#FFFFFF" transform="translate(0,0)"/>
<path d="" fill="#FFFFFF" transform="translate(0,0)"/>
<path d="" fill="#FFFFFF" transform="translate(0,0)"/>
<path d="" fill="#FFFFFF" transform="translate(0,0)"/>
<path d="" fill="#FFFFFF" transform="translate(0,0)"/>
<path d="" fill="#FFFFFF" transform="translate(0,0)"/>
<path d="" fill="#FFFFFF" transform="translate(0,0)"/>
<path d="" fill="#FFFFFF" transform="translate(0,0)"/>
<path d="" fill="#FFFFFF" transform="translate(0,0)"/>
<path d="" fill="#FFFFFF" transform="translate(0,0)"/>
<path d="" fill="#FFFFFF" transform="translate(0,0)"/>
<path d="" fill="#FFFFFF" transform="translate(0,0)"/>
<path d="" fill="#FFFFFF" transform="translate(0,0)"/>
<path d="" fill="#FFFFFF" transform="translate(0,0)"/>
<path d="" fill="#FFFFFF" transform="translate(0,0)"/>
<path d="" fill="#FFFFFF" transform="translate(0,0)"/>
<path d="" fill="#FFFFFF" transform="translate(0,0)"/>
<path d="" fill="#FFFFFF" transform="translate(0,0)"/>
<path d="" fill="#FFFFFF" transform="translate(0,0)"/>
<path d="" fill="#FFFFFF" transform="translate(0,0)"/>
<path d="" fill="#FFFFFF" transform="translate(0,0)"/>
<path d="" fill="#FFFFFF" transform="translate(0,0)"/>
<path d="" fill="#FFFFFF" transform="translate(0,0)"/>
<path d="" fill="#FFFFFF" transform="translate(0,0)"/>
<path d="" fill="#FFFFFF" transform="translate(0,0)"/>
<path d="" fill="#FFFFFF" transform="translate(0,0)"/>
<path d="" fill="#FFFFFF" transform="translate(0,0)"/>
<path d="" fill="#FFFFFF" transform="translate(0,0)"/>
<path d="" fill="#FFFFFF" transform="translate(0,0)"/>
<path d="" fill="#FFFFFF" transform="translate(0,0)"/>
<path d="" fill="#FFFFFF" transform="translate(0,0)"/>
<path d="" fill="#FFFFFF" transform="translate(0,0)"/>
<path d="" fill="#FFFFFF" transform="translate(0,0)"/>
<path d="" fill="#FFFFFF" transform="translate(0,0)"/>
<path d="" fill="#FFFFFF" transform="translate(0,0)"/>
<path d="" fill="#FFFFFF" transform="translate(0,0)"/>
<path d="" fill="#FFFFFF" transform="translate(0,0)"/>
</svg>
